<?xml version="1.0" encoding="UTF-8"?>
<svg width="450px" height="247px" viewBox="0 0 450 247" version="1.1" xmlns="http://www.w3.org/2000/svg" xmlns:xlink="http://www.w3.org/1999/xlink">
    <!-- Generator: Sketch 52.3 (67297) - http://www.bohemiancoding.com/sketch -->
    <title>big-feature-infrastructure-management</title>
    <desc>Created with Sketch.</desc>
    <defs>
        <path d="M18.3726113,0.387178706 L173.867242,0.387178706 C176.759166,0.387178706 179.103533,2.73154594 179.103533,5.62346949 L179.103533,126.206617 L13.1363206,126.206617 L13.1363206,5.62346949 C13.1363206,2.73154594 15.4806878,0.387178706 18.3726113,0.387178706 Z" id="path-1"></path>
        <filter x="-20.2%" y="-23.4%" width="140.4%" height="153.3%" filterUnits="objectBoundingBox" id="filter-2">
            <feOffset dx="0" dy="4" in="SourceAlpha" result="shadowOffsetOuter1"></feOffset>
            <feGaussianBlur stdDeviation="10.5" in="shadowOffsetOuter1" result="shadowBlurOuter1"></feGaussianBlur>
            <feColorMatrix values="0 0 0 0 0   0 0 0 0 0   0 0 0 0 0  0 0 0 0.0683876812 0" type="matrix" in="shadowBlurOuter1"></feColorMatrix>
        </filter>
        <path d="M55.5470265,30.966953 L55.5470265,126.206617 L13.1363206,126.206617 L13.1363206,30.966953 L13.1363206,14.0527778 L179.103533,14.0527778 L179.103533,30.966953 L55.5470265,30.966953 Z" id="path-3"></path>
        <filter x="-20.2%" y="-26.3%" width="140.4%" height="159.7%" filterUnits="objectBoundingBox" id="filter-4">
            <feOffset dx="0" dy="4" in="SourceAlpha" result="shadowOffsetOuter1"></feOffset>
            <feGaussianBlur stdDeviation="10.5" in="shadowOffsetOuter1" result="shadowBlurOuter1"></feGaussianBlur>
            <feColorMatrix values="0 0 0 0 0   0 0 0 0 0   0 0 0 0 0  0 0 0 0.0683876812 0" type="matrix" in="shadowBlurOuter1"></feColorMatrix>
        </filter>
        <path d="M5.981307,0.387178706 L161.475938,0.387178706 C164.367862,0.387178706 166.712229,2.73154594 166.712229,5.62346949 L166.712229,14.2524943 L0.745016219,14.2524943 L0.745016219,5.62346949 C0.745016219,2.73154594 3.08938346,0.387178706 5.981307,0.387178706 Z" id="path-5"></path>
        <filter x="-10.2%" y="-93.8%" width="120.5%" height="345.2%" filterUnits="objectBoundingBox" id="filter-6">
            <feOffset dx="0" dy="4" in="SourceAlpha" result="shadowOffsetOuter1"></feOffset>
            <feGaussianBlur stdDeviation="5" in="shadowOffsetOuter1" result="shadowBlurOuter1"></feGaussianBlur>
            <feColorMatrix values="0 0 0 0 0   0 0 0 0 0   0 0 0 0 0  0 0 0 0.0683876812 0" type="matrix" in="shadowBlurOuter1"></feColorMatrix>
        </filter>
        <linearGradient x1="100%" y1="93.4354891%" x2="0%" y2="93.4354891%" id="linearGradient-7">
            <stop stop-color="#00C7B7" stop-opacity="0.4212281" offset="0%"></stop>
            <stop stop-color="#01AD9F" stop-opacity="0.115290987" offset="100%"></stop>
            <stop stop-color="#00C7B7" stop-opacity="0.111129982" offset="100%"></stop>
        </linearGradient>
        <polygon id="path-8" points="9.5630955 63.9446206 17.470284 77.6402727 1.65590703 77.6402727"></polygon>
        <filter x="-113.8%" y="-109.5%" width="327.6%" height="316.0%" filterUnits="objectBoundingBox" id="filter-9">
            <feOffset dx="0" dy="2" in="SourceAlpha" result="shadowOffsetOuter1"></feOffset>
            <feGaussianBlur stdDeviation="7" in="shadowOffsetOuter1" result="shadowBlurOuter1"></feGaussianBlur>
            <feColorMatrix values="0 0 0 0 0   0 0 0 0 0   0 0 0 0 0  0 0 0 0.0683876812 0" type="matrix" in="shadowBlurOuter1"></feColorMatrix>
        </filter>
        <polygon id="path-10" points="9.5630955 54.3794032 17.470284 68.0750554 1.65590703 68.0750554"></polygon>
        <filter x="-113.8%" y="-109.5%" width="327.6%" height="316.0%" filterUnits="objectBoundingBox" id="filter-11">
            <feOffset dx="0" dy="2" in="SourceAlpha" result="shadowOffsetOuter1"></feOffset>
            <feGaussianBlur stdDeviation="7" in="shadowOffsetOuter1" result="shadowBlurOuter1"></feGaussianBlur>
            <feColorMatrix values="0 0 0 0 0   0 0 0 0 0   0 0 0 0 0  0 0 0 0.0683876812 0" type="matrix" in="shadowBlurOuter1"></feColorMatrix>
        </filter>
        <polygon id="path-12" points="9.5630955 36.4083887 17.470284 50.1040409 1.65590703 50.1040409"></polygon>
        <filter x="-113.8%" y="-109.5%" width="327.6%" height="316.0%" filterUnits="objectBoundingBox" id="filter-13">
            <feOffset dx="0" dy="2" in="SourceAlpha" result="shadowOffsetOuter1"></feOffset>
            <feGaussianBlur stdDeviation="7" in="shadowOffsetOuter1" result="shadowBlurOuter1"></feGaussianBlur>
            <feColorMatrix values="0 0 0 0 0   0 0 0 0 0   0 0 0 0 0  0 0 0 0.0683876812 0" type="matrix" in="shadowBlurOuter1"></feColorMatrix>
        </filter>
        <polygon id="path-14" points="9.5630955 18.4373742 17.470284 32.1330264 1.65590703 32.1330264"></polygon>
        <filter x="-113.8%" y="-109.5%" width="327.6%" height="316.0%" filterUnits="objectBoundingBox" id="filter-15">
            <feOffset dx="0" dy="2" in="SourceAlpha" result="shadowOffsetOuter1"></feOffset>
            <feGaussianBlur stdDeviation="7" in="shadowOffsetOuter1" result="shadowBlurOuter1"></feGaussianBlur>
            <feColorMatrix values="0 0 0 0 0   0 0 0 0 0   0 0 0 0 0  0 0 0 0.0683876812 0" type="matrix" in="shadowBlurOuter1"></feColorMatrix>
        </filter>
        <polygon id="path-16" points="9.5630955 0.466359706 17.470284 14.1620119 1.65590703 14.1620119"></polygon>
        <filter x="-113.8%" y="-109.5%" width="327.6%" height="316.0%" filterUnits="objectBoundingBox" id="filter-17">
            <feOffset dx="0" dy="2" in="SourceAlpha" result="shadowOffsetOuter1"></feOffset>
            <feGaussianBlur stdDeviation="7" in="shadowOffsetOuter1" result="shadowBlurOuter1"></feGaussianBlur>
            <feColorMatrix values="0 0 0 0 0   0 0 0 0 0   0 0 0 0 0  0 0 0 0.0683876812 0" type="matrix" in="shadowBlurOuter1"></feColorMatrix>
        </filter>
        <linearGradient x1="50%" y1="0%" x2="50%" y2="100%" id="linearGradient-18">
            <stop stop-color="#FF8E7A" offset="0%"></stop>
            <stop stop-color="#FF8E7A" stop-opacity="0.0335427989" offset="100%"></stop>
        </linearGradient>
        <path d="M3.83908745,54.9420413 C1.43255315,48.9359158 0.229286003,44.26904 0.229286003,40.9414139 C0.229286003,35.9499746 2.03418673,33.0121958 2.03418673,29.3105018 C2.03418673,25.6088077 1.85070468,21.4793704 3.15141839,20.4232632 C4.45213211,19.3671559 6.78114108,24.9442107 7.41176058,24.9442107 C8.04238008,24.9442107 8.51890036,5.26186756 8.51890036,3.828623 C8.51890036,2.39537844 9.22774889,0.495204002 10.6827128,0.495204002 C12.1376767,0.495204002 12.851653,2.69649882 12.851653,4.05738602 C12.851653,4.96464415 13.349992,8.8853706 14.3466699,15.8195654 C16.5015107,15.6111699 18.0161472,15.8108233 18.8905795,16.4185256 C19.7650118,17.0262279 20.4584861,18.3611404 20.9710024,20.4232632 C23.2041186,20.264507 24.7919784,20.5052688 25.7345818,21.1455487 C26.6771852,21.7858286 27.1417678,23.0520493 27.1283298,24.9442107 C30.14322,25.8218211 31.7811084,27.036771 32.0419952,28.5890603 C32.4333253,30.9174944 32.9415647,45.5266871 32.9415647,47.9614018 C32.9415647,49.5845449 32.5112648,51.648415 31.650665,54.153012 L3.83908745,54.9420413 Z" id="path-19"></path>
        <path d="M35.6254455,17.3138666 L51.7255177,17.3138666 C52.6860129,17.3138666 53.4646481,18.0925018 53.4646481,19.052997 L53.4646481,20.063156 C53.4646481,21.0236512 52.6860129,21.8022865 51.7255177,21.8022865 L35.6254455,21.8022865 C34.6649502,21.8022865 33.886315,21.0236512 33.886315,20.063156 L33.886315,19.052997 C33.886315,18.0925018 34.6649502,17.3138666 35.6254455,17.3138666 Z" id="path-21"></path>
        <filter x="-81.7%" y="-311.9%" width="263.4%" height="812.9%" filterUnits="objectBoundingBox" id="filter-22">
            <feOffset dx="0" dy="2" in="SourceAlpha" result="shadowOffsetOuter1"></feOffset>
            <feGaussianBlur stdDeviation="5" in="shadowOffsetOuter1" result="shadowBlurOuter1"></feGaussianBlur>
            <feColorMatrix values="0 0 0 0 0   0 0 0 0 0   0 0 0 0 0  0 0 0 0.0683876812 0" type="matrix" in="shadowBlurOuter1"></feColorMatrix>
        </filter>
    </defs>
    <g id="big-feature-infrastructure-management" stroke="none" stroke-width="1" fill="none" fill-rule="evenodd">
        <g id="infrastructure-management-illustration-diagram" transform="translate(-4.000000, -8.000000)">
            <g id="gears" transform="translate(0.739130, 0.424206)" fill="#F7F8F8">
                <path d="M84.3966219,82.3456349 C86.0204439,84.804529 87.1757061,87.6000739 87.7352166,90.6050777 L94.2847569,90.6050777 C95.8215493,90.6050777 97.0673656,91.850894 97.0673656,93.3876864 L97.0673656,96.1320316 C97.0673656,97.668824 95.8215493,98.9146403 94.2847569,98.9146403 L87.7352166,98.9146403 C87.1258423,102.187451 85.8097971,105.211806 83.9514,107.823385 L88.502676,112.536369 C89.5702217,113.641845 89.5394732,115.403427 88.4339973,116.470973 L86.4598805,118.377355 C85.3544046,119.444901 83.5928226,119.414152 82.5252769,118.308677 L77.974498,113.596207 C75.5156039,115.220029 72.720059,116.375291 69.7150552,116.934802 L69.7150552,123.484342 C69.7150552,125.021134 68.4692388,126.266951 66.9324465,126.266951 L64.1881012,126.266951 C62.6513088,126.266951 61.4054925,125.021134 61.4054925,123.484342 L61.4054925,116.934802 C58.1326814,116.325427 55.1083268,115.009382 52.4967478,113.150985 L47.7837635,117.702261 C46.6782876,118.769807 44.9167056,118.739058 43.8491599,117.633582 L41.9427775,115.659466 C40.8752318,114.55399 40.9059804,112.792408 42.0114563,111.724862 L46.7239258,107.174083 C45.1001038,104.715189 43.9448416,101.919644 43.3853311,98.9146403 L36.8357907,98.9146403 C35.2989984,98.9146403 34.053182,97.668824 34.053182,96.1320316 L34.053182,93.3876864 C34.053182,91.850894 35.2989984,90.6050777 36.8357907,90.6050777 L43.3853311,90.6050777 C43.9947054,87.3322665 45.3107506,84.307912 47.1691477,81.696333 L42.6178716,76.9833487 C41.550326,75.8778728 41.5810745,74.1162908 42.6865504,73.0487451 L44.6606672,71.1423627 C45.7661431,70.074817 47.5277251,70.1055655 48.5952708,71.2110414 L53.1460497,75.923511 C55.6049438,74.299689 58.4004887,73.1444267 61.4054925,72.5849163 L61.4054925,66.0353759 C61.4054925,64.4985835 62.6513088,63.2527672 64.1881012,63.2527672 L66.9324465,63.2527672 C68.4692388,63.2527672 69.7150552,64.4985835 69.7150552,66.0353759 L69.7150552,72.5849163 C72.9878663,73.1942906 76.0122208,74.5103357 78.6237998,76.3687328 L83.3367842,71.8174568 C84.4422601,70.7499111 86.2038421,70.7806597 87.2713878,71.8861356 L89.1777702,73.8602523 C90.2453158,74.9657282 90.2145673,76.7273103 89.1090914,77.7948559 L84.3966219,82.3456349 Z M65.5602738,103.23448 C70.2406776,103.23448 74.0348946,99.4402628 74.0348946,94.759859 C74.0348946,90.0794552 70.2406776,86.2852382 65.5602738,86.2852382 C60.87987,86.2852382 57.0856531,90.0794552 57.0856531,94.759859 C57.0856531,99.4402628 60.87987,103.23448 65.5602738,103.23448 Z" id="Combined-Shape" transform="translate(65.560274, 94.759859) rotate(2.000000) translate(-65.560274, -94.759859) "></path>
                <path d="M46.9694982,44.6200998 C48.2745376,46.5962731 49.2030032,48.8430073 49.6526727,51.2580801 L54.3701609,51.2580801 C55.9069533,51.2580801 57.1527696,52.5038965 57.1527696,54.0406888 L57.1527696,55.1537323 C57.1527696,56.6905247 55.9069533,57.936341 54.3701609,57.936341 L49.6526727,57.936341 C49.1629284,60.5666463 48.1052442,62.997271 46.6116806,65.0961547 L49.8899956,68.4909493 C50.9575412,69.5964252 50.9267927,71.3580072 49.8213168,72.4255529 L49.0206603,73.1987378 C47.9151844,74.2662835 46.1536024,74.235535 45.0860567,73.1300591 L41.8081413,69.7356783 C39.8319679,71.0407177 37.5852338,71.9691832 35.1701609,72.4188527 L35.1701609,77.136341 C35.1701609,78.6731334 33.9243446,79.9189497 32.3875522,79.9189497 L31.2745088,79.9189497 C29.7377164,79.9189497 28.4919001,78.6731334 28.4919001,77.136341 L28.4919001,72.4188527 C25.8615948,71.9291085 23.4309701,70.8714243 21.3320864,69.3778607 L17.9372918,72.6561756 C16.8318159,73.7237213 15.0702339,73.6929728 14.0026882,72.5874969 L13.2295033,71.7868404 C12.1619576,70.6813645 12.1927061,68.9197824 13.298182,67.8522368 L16.6925628,64.5743213 C15.3875234,62.598148 14.4590579,60.3514139 14.0093884,57.936341 L9.29190008,57.936341 C7.75510773,57.936341 6.50929138,56.6905247 6.50929138,55.1537323 L6.50929138,54.0406888 C6.50929138,52.5038965 7.75510773,51.2580801 9.29190008,51.2580801 L14.0093884,51.2580801 C14.4991326,48.6277749 15.5568168,46.1971501 17.0503804,44.0982664 L13.7720655,40.7034719 C12.7045198,39.597996 12.7352683,37.836414 13.8407442,36.7688683 L14.6414007,35.9956833 C15.7468766,34.9281377 17.5084586,34.9588862 18.5760043,36.0643621 L21.8539198,39.4587429 C23.8300931,38.1537035 26.0768272,37.2252379 28.4919001,36.7755684 L28.4919001,32.0580801 C28.4919001,30.5212878 29.7377164,29.2754715 31.2745088,29.2754715 L32.3875522,29.2754715 C33.9243446,29.2754715 35.1701609,30.5212878 35.1701609,32.0580801 L35.1701609,36.7755684 C37.8004662,37.2653127 40.2310909,38.3229969 42.3299747,39.8165605 L45.7247692,36.5382455 C46.8302451,35.4706999 48.5918271,35.5014484 49.6593728,36.6069243 L50.4325578,37.4075808 C51.5001034,38.5130567 51.4693549,40.2746387 50.363879,41.3421844 L46.9694982,44.6200998 Z M31.8310305,61.408126 C35.5925952,61.408126 38.6419459,58.3587753 38.6419459,54.5972106 C38.6419459,50.8356459 35.5925952,47.7862952 31.8310305,47.7862952 C28.0694658,47.7862952 25.0201151,50.8356459 25.0201151,54.5972106 C25.0201151,58.3587753 28.0694658,61.408126 31.8310305,61.408126 Z" id="Combined-Shape" transform="translate(31.831031, 54.597211) rotate(-17.000000) translate(-31.831031, -54.597211) "></path>
                <path d="M67.4138508,16.2079283 C68.3751858,17.6636426 69.059124,19.3186609 69.3903654,21.097683 L72.4554703,21.097683 C73.8139325,21.097683 74.9151837,22.1989342 74.9151837,23.5573964 C74.9151837,24.9158586 73.8139325,26.0171098 72.4554703,26.0171098 L69.3903654,26.0171098 C69.0296037,27.9546792 68.2504787,29.7451574 67.1502705,31.2912642 L69.2804085,33.4970867 C70.2240756,34.4742826 70.1968952,36.0314497 69.2196993,36.9751169 C68.2425033,37.918784 66.6853362,37.8916035 65.741669,36.9144076 L63.6118254,34.70889 C62.1561111,35.670225 60.5010927,36.3541632 58.7220706,36.6854046 L58.7220706,39.7505095 C58.7220706,41.1089717 57.6208194,42.2102229 56.2623572,42.2102229 C54.903895,42.2102229 53.8026439,41.1089717 53.8026439,39.7505095 L53.8026439,36.6854046 C51.8650744,36.3246428 50.0745962,35.5455179 48.5284894,34.4453097 L46.322667,36.5754477 C45.3454711,37.5191148 43.7883039,37.4919344 42.8446368,36.5147384 C41.9009696,35.5375425 41.9281501,33.9803754 42.905346,33.0367082 L45.1108637,30.9068646 C44.1495287,29.4511503 43.4655904,27.7961319 43.1343491,26.0171098 L40.0692442,26.0171098 C38.710782,26.0171098 37.6095308,24.9158586 37.6095308,23.5573964 C37.6095308,22.1989342 38.710782,21.097683 40.0692442,21.097683 L43.1343491,21.097683 C43.4951108,19.1601136 44.2742358,17.3696354 45.3744439,15.8235286 L43.244306,13.6177062 C42.3006388,12.6405103 42.3278193,11.0833431 43.3050152,10.139676 C44.2822111,9.19600884 45.8393783,9.22318929 46.7830454,10.2003852 L48.9128891,12.4059029 C50.3686034,11.4445679 52.0236217,10.7606296 53.8026439,10.4293883 L53.8026439,7.36428335 C53.8026439,6.00582116 54.903895,4.90456997 56.2623572,4.90456997 C57.6208194,4.90456997 58.7220706,6.00582116 58.7220706,7.36428335 L58.7220706,10.4293883 C60.65964,10.79015 62.4501182,11.569275 63.996225,12.6694831 L66.2020475,10.5393452 C67.1792434,9.59567802 68.7364106,9.62285848 69.6800777,10.6000544 C70.6237448,11.5772503 70.5965644,13.1344175 69.6193684,14.0780846 L67.4138508,16.2079283 Z M56.2623572,28.5745409 C59.0332496,28.5745409 61.2795017,26.3282888 61.2795017,23.5573964 C61.2795017,20.7865041 59.0332496,18.540252 56.2623572,18.540252 C53.4914649,18.540252 51.2452128,20.7865041 51.2452128,23.5573964 C51.2452128,26.3282888 53.4914649,28.5745409 56.2623572,28.5745409 Z" id="Combined-Shape" transform="translate(56.262357, 23.557396) rotate(-17.000000) translate(-56.262357, -23.557396) "></path>
            </g>
            <g id="gears" transform="translate(375.107178, 164.772032)" fill="#F7F8F8">
                <path d="M47.6774641,18.9441829 C49.1669906,21.1997183 50.2267088,23.7640623 50.7399459,26.5205423 L56.5176865,26.5205423 C58.0544788,26.5205423 59.3002952,27.7663586 59.3002952,29.303151 L59.3002952,31.3602678 C59.3002952,32.8970601 58.0544788,34.1428764 56.5176865,34.1428764 L50.7399459,34.1428764 C50.1809689,37.1450152 48.973765,39.9192455 47.2690635,42.3148382 L51.2840715,46.4725007 C52.3516171,47.5779766 52.3208686,49.3395586 51.2153927,50.4071043 L49.7356268,51.8360977 C48.6301509,52.9036433 46.8685688,52.8728948 45.8010231,51.7674189 L41.7864712,47.6102287 C39.5309359,49.0997552 36.9665918,50.1594734 34.2101119,50.6727105 L34.2101119,56.450451 C34.2101119,57.9872434 32.9642955,59.2330597 31.4275032,59.2330597 L29.3703864,59.2330597 C27.8335941,59.2330597 26.5877777,57.9872434 26.5877777,56.450451 L26.5877777,50.6727105 C23.5856389,50.1137335 20.8114086,48.9065296 18.4158159,47.2018281 L14.2581535,51.2168361 C13.1526776,52.2843817 11.3910955,52.2536332 10.3235499,51.1481573 L8.89455649,49.6683913 C7.82701082,48.5629154 7.85775935,46.8013334 8.96323525,45.7337877 L13.1204255,41.7192358 C11.630899,39.4637005 10.5711808,36.8993564 10.0579437,34.1428764 L4.28020312,34.1428764 C2.74341077,34.1428764 1.49759442,32.8970601 1.49759442,31.3602678 L1.49759442,29.303151 C1.49759442,27.7663586 2.74341077,26.5205423 4.28020312,26.5205423 L10.0579437,26.5205423 C10.6169207,23.5184035 11.8241245,20.7441732 13.528826,18.3485805 L9.51381809,14.1909181 C8.44627242,13.0854422 8.47702095,11.3238601 9.58249685,10.2563145 L11.0622628,8.82732107 C12.1677387,7.75977541 13.9293208,7.79052394 14.9968664,8.89599984 L19.0114184,13.0531901 C21.2669537,11.5636635 23.8312977,10.5039453 26.5877777,9.99070826 L26.5877777,4.2129677 C26.5877777,2.67617535 27.8335941,1.430359 29.3703864,1.430359 L31.4275032,1.430359 C32.9642955,1.430359 34.2101119,2.67617535 34.2101119,4.2129677 L34.2101119,9.99070826 C37.2122506,10.5496853 39.986481,11.7568891 42.3820737,13.4615906 L46.5397361,9.44658267 C47.645212,8.37903701 49.406794,8.40978553 50.4743397,9.51526144 L51.9033331,10.9950274 C52.9708787,12.1005033 52.9401302,13.8620853 51.8346543,14.929631 L47.6774641,18.9441829 Z M30.3989448,38.1054508 C34.6922636,38.1054508 38.1726862,34.6250282 38.1726862,30.3317094 C38.1726862,26.0383905 34.6922636,22.557968 30.3989448,22.557968 C26.105626,22.557968 22.6252034,26.0383905 22.6252034,30.3317094 C22.6252034,34.6250282 26.105626,38.1054508 30.3989448,38.1054508 Z" id="Combined-Shape" transform="translate(30.398945, 30.331709) rotate(2.000000) translate(-30.398945, -30.331709) "></path>
                <path d="M73.9463063,57.2509494 C75.0822133,58.9710117 75.8903502,60.9265703 76.2817428,63.028651 L80.0272226,63.028651 C81.5640149,63.028651 82.8098313,64.2744674 82.8098313,65.8112597 L82.8098313,66.0588042 C82.8098313,67.5955965 81.5640149,68.8414129 80.0272226,68.8414129 L76.2817428,68.8414129 C75.8554692,71.130832 74.9348603,73.2464491 73.6348617,75.0733186 L76.2377979,77.7687379 C77.3053436,78.8742138 77.274595,80.6357959 76.1691191,81.7033415 L75.9910505,81.8753004 C74.8855746,82.942846 73.1239926,82.9120975 72.0564469,81.8066216 L69.4538585,79.1115623 C67.7337961,80.2474694 65.7782375,81.0556063 63.6761568,81.4469988 L63.6761568,85.1924786 C63.6761568,86.7292709 62.4303405,87.9750873 60.8935481,87.9750873 L60.6460037,87.9750873 C59.1092113,87.9750873 57.863395,86.7292709 57.863395,85.1924786 L57.863395,81.4469988 C55.5739758,81.0207252 53.4583588,80.1001163 51.6314893,78.8001177 L48.9360699,81.4030539 C47.830594,82.4705996 46.069012,82.4398511 45.0014663,81.3343752 L44.8295075,81.1563066 C43.7619618,80.0508307 43.7927103,78.2892486 44.8981862,77.221703 L47.5932455,74.6191145 C46.4573385,72.8990522 45.6492016,70.9434936 45.257809,68.8414129 L41.5123293,68.8414129 C39.9755369,68.8414129 38.7297206,67.5955965 38.7297206,66.0588042 L38.7297206,65.8112597 C38.7297206,64.2744674 39.9755369,63.028651 41.5123293,63.028651 L45.257809,63.028651 C45.6840827,60.7392319 46.6046915,58.6236148 47.9046901,56.7967453 L45.3017539,54.1013259 C44.2342083,52.99585 44.2649568,51.234268 45.3704327,50.1667223 L45.5485013,49.9947635 C46.6539772,48.9272178 48.4155592,48.9579664 49.4831049,50.0634423 L52.0856933,52.7585015 C53.8057557,51.6225945 55.7613143,50.8144576 57.863395,50.423065 L57.863395,46.6775853 C57.863395,45.1407929 59.1092113,43.8949766 60.6460037,43.8949766 L60.8935481,43.8949766 C62.4303405,43.8949766 63.6761568,45.1407929 63.6761568,46.6775853 L63.6761568,50.423065 C65.965576,50.8493387 68.081193,51.7699476 69.9080625,53.0699462 L72.6034819,50.46701 C73.7089578,49.3994643 75.4705398,49.4302128 76.5380855,50.5356887 L76.7100443,50.7137573 C77.77759,51.8192332 77.7468415,53.5808152 76.6413656,54.6483609 L73.9463063,57.2509494 Z M60.7697759,71.8632563 C64.0438438,71.8632563 66.6980003,69.2090999 66.6980003,65.9350319 C66.6980003,62.660964 64.0438438,60.0068075 60.7697759,60.0068075 C57.495708,60.0068075 54.8415515,62.660964 54.8415515,65.9350319 C54.8415515,69.2090999 57.495708,71.8632563 60.7697759,71.8632563 Z" id="Combined-Shape" transform="translate(60.769776, 65.935032) rotate(-17.000000) translate(-60.769776, -65.935032) "></path>
            </g>
            <g id="Group" transform="translate(104.000000, 31.000000)">
                <g id="doc-weebsite-big" transform="translate(0.260870, 27.260870)">
                    <g id="Rectangle-7">
                        <use fill="black" fill-opacity="1" filter="url(#filter-2)" xlink:href="#path-1"></use>
                        <use fill="#FFFFFF" fill-rule="evenodd" xlink:href="#path-1"></use>
                    </g>
                    <g id="Combined-Shape">
                        <use fill="black" fill-opacity="1" filter="url(#filter-4)" xlink:href="#path-3"></use>
                        <use fill="#0F1E24" fill-rule="evenodd" xlink:href="#path-3"></use>
                    </g>
                    <g id="Group-7" opacity="0.486941964" transform="translate(0.000000, 5.086957)" fill="#FFFFFF">
                        <polygon id="Rectangle-18" opacity="0.111104911" transform="translate(36.487432, 48.359538) rotate(30.000000) translate(-36.487432, -48.359538) " points="37.1850813 2.96950452 40.516444 1.04614139 41.257615 0.618226076 37.0311059 96.10085 31.7172483 87.0341023 35.9260295 3.69641845"></polygon>
                        <polygon id="Rectangle-18" opacity="0.104241071" transform="translate(25.270304, 34.597860) rotate(30.000000) translate(-25.270304, -34.597860) " points="34.1792858 0.357628366 31.3064667 68.8380922 16.3613213 43.8620604 19.1965803 9.00789742"></polygon>
                    </g>
                    <g id="Group-69" transform="translate(12.391304, 0.000000)">
                        <g id="Rectangle-7">
                            <use fill="black" fill-opacity="1" filter="url(#filter-6)" xlink:href="#path-5"></use>
                            <use fill="#FFFFFF" fill-rule="evenodd" xlink:href="#path-5"></use>
                        </g>
                        <circle id="Oval-2" fill="#FA3945" opacity="0.568694196" cx="8.23949493" cy="7.3198365" r="2.24994364"></circle>
                        <circle id="Oval-2" fill="#F6BC02" opacity="0.568694196" cx="15.3107464" cy="7.3198365" r="2.24994364"></circle>
                        <circle id="Oval-2" fill="#00C7B7" opacity="0.568694196" cx="22.3819978" cy="7.3198365" r="2.24994364"></circle>
                        <polygon id="Rectangle-12" fill="#E9EBEB" points="35.6476107 4.70169111 154.316673 4.70169111 154.316673 9.93798189 35.6476107 9.93798189"></polygon>
                    </g>
                    <g id="Group-70" transform="translate(65.434783, 41.739130)">
                        <path d="M3.21282168,0.512348682 L34.7959793,0.512348682 C36.229991,0.512348682 37.3924871,1.67484483 37.3924871,3.10885651 L37.3924871,4.04520307 C37.3924871,5.47921475 36.229991,6.6417109 34.7959793,6.6417109 L3.21282168,6.6417109 C1.77881001,6.6417109 0.616313857,5.47921475 0.616313857,4.04520307 L0.616313857,3.10885651 C0.616313857,1.67484483 1.77881001,0.512348682 3.21282168,0.512348682 Z" id="Rectangle-8" fill="#E9EBEB" opacity="0.878236607"></path>
                        <rect id="Rectangle-4" fill="#E9EBEB" opacity="0.762723214" x="0.616313857" y="29.7026371" width="102.666817" height="26.0497894" rx="2.59650783"></rect>
                        <path d="M9.94654275,37.8282798 L76.6182228,37.8282798" id="Path-22" stroke-opacity="0.392153533" stroke="#BEC2C3" stroke-width="1.04347826"></path>
                        <path d="M9.94654275,44.0073082 L34.1404125,44.0073082" id="Path-22" stroke-opacity="0.392153533" stroke="#BEC2C3" stroke-width="1.04347826"></path>
                        <path d="M9.94654275,49.4201663 L44.0519016,49.4201663" id="Path-22" stroke-opacity="0.392153533" stroke="#BEC2C3" stroke-width="1.04347826"></path>
                        <path d="M2.00966841,63.2180026 L95.2732698,63.2180026" id="Path-23" stroke-opacity="0.392153533" stroke="#BEC2C3" stroke-width="1.04347826"></path>
                        <path d="M2.00966841,13.2770932 L95.2732698,13.2770932" id="Path-23" stroke-opacity="0.392153533" stroke="#BEC2C3" stroke-width="1.04347826"></path>
                        <path d="M2.00966841,21.4466458 L69.3081915,21.4466458" id="Path-23" stroke-opacity="0.392153533" stroke="#BEC2C3" stroke-width="1.04347826"></path>
                        <path d="M2.00966841,71.8730286 L77.9632176,71.8730286" id="Path-23" stroke-opacity="0.392153533" stroke="#BEC2C3" stroke-width="1.04347826"></path>
                    </g>
                    <g id="Group-40" transform="translate(21.955541, 41.739130)" stroke-linecap="round" stroke-width="2.60869565">
                        <path d="M0.783593522,2.02232608 L22.930012,2.02232608" id="Path-18" stroke="#E7645C"></path>
                        <path d="M0.783593522,11.8949871 L22.930012,11.8949871" id="Path-18" stroke="#00C7B7"></path>
                        <path d="M0.783593522,21.7676481 L22.930012,21.7676481" id="Path-18" stroke="#F9D86E"></path>
                        <path d="M0.783593522,31.6403091 L22.930012,31.6403091" id="Path-18" stroke="#E7645C"></path>
                        <path d="M0.783593522,41.5129701 L22.930012,41.5129701" id="Path-18" stroke="#F9D86E"></path>
                        <path d="M0.783593522,51.3856311 L22.930012,51.3856311" id="Path-18" stroke="#00C7B7"></path>
                    </g>
                </g>
                <g id="upvote" transform="translate(196.926620, 64.780987)">
                    <g id="Group-51" transform="translate(0.807629, 0.279667)">
                        <g id="Polygon" opacity="0.478962054">
                            <use fill="black" fill-opacity="1" filter="url(#filter-9)" xlink:href="#path-8"></use>
                            <use fill="url(#linearGradient-7)" fill-rule="evenodd" style="mix-blend-mode: multiply;" xlink:href="#path-8"></use>
                        </g>
                        <polygon id="Polygon" fill="#00C7B7" points="9.5630955 59.5967945 17.470284 73.2924467 1.65590703 73.2924467"></polygon>
                        <g id="Polygon" opacity="0.478962054">
                            <use fill="black" fill-opacity="1" filter="url(#filter-11)" xlink:href="#path-10"></use>
                            <use fill="url(#linearGradient-7)" fill-rule="evenodd" style="mix-blend-mode: multiply;" xlink:href="#path-10"></use>
                        </g>
                        <g id="Polygon" opacity="0.478962054">
                            <use fill="black" fill-opacity="1" filter="url(#filter-13)" xlink:href="#path-12"></use>
                            <use fill="url(#linearGradient-7)" fill-rule="evenodd" style="mix-blend-mode: multiply;" xlink:href="#path-12"></use>
                        </g>
                        <g id="Polygon" opacity="0.478962054">
                            <use fill="black" fill-opacity="1" filter="url(#filter-15)" xlink:href="#path-14"></use>
                            <use fill="url(#linearGradient-7)" fill-rule="evenodd" style="mix-blend-mode: multiply;" xlink:href="#path-14"></use>
                        </g>
                        <g id="Polygon" opacity="0.478962054">
                            <use fill="black" fill-opacity="1" filter="url(#filter-17)" xlink:href="#path-16"></use>
                            <use fill="url(#linearGradient-7)" fill-rule="evenodd" style="mix-blend-mode: multiply;" xlink:href="#path-16"></use>
                        </g>
                    </g>
                    <g id="Group-52" transform="translate(0.807629, 69.565217)">
                        <mask id="mask-20" fill="white">
                            <use xlink:href="#path-19"></use>
                        </mask>
                        <use id="Path-19" fill="url(#linearGradient-18)" xlink:href="#path-19"></use>
                        <path d="M7.18149865,39.5039125 L7.01796802,21.6763804" id="Path-20" stroke="#FB6E77" stroke-width="0.694434783" mask="url(#mask-20)"></path>
                        <path d="M15.6429764,28.9099724 L14.6241979,14.5859085" id="Path-21" stroke="#FB6E77" stroke-width="0.694434783" mask="url(#mask-20)"></path>
                        <path d="M22.324986,28.4281595 L21.138784,19.0879739" id="Path-24" stroke="#FB6E77" stroke-width="0.694434783" mask="url(#mask-20)"></path>
                        <path d="M27.3924019,28.4265746 C27.4472098,26.8318653 27.4746137,25.6572385 27.4746137,24.902694 C27.4746137,24.1481496 27.4472098,23.7118318 27.3924019,23.5937407" id="Path-25" stroke="#FB6E77" stroke-width="0.694434783" mask="url(#mask-20)"></path>
                    </g>
                </g>
                <g id="machine" transform="translate(55.260870, 0.304348)">
                    <polygon id="Path-62" fill="#EFF0F0" points="0.263808719 12.5676887 0.263808719 15.7321788 221.83074 14.1291592 199.236066 0.832423088"></polygon>
                    <path d="M221.542677,95.6415974 L224.896043,122.644767 L197.012063,95.6415974 L221.542677,95.6415974 Z M221.326704,93.902467 L196.115067,93.902467 L198.550147,71.5931272 L221.291096,93.6157261 L221.326704,93.902467 Z M213.659682,32.1633366 L216.523008,55.220428 L201.884563,41.0443878 L202.853936,32.1633366 L213.659682,32.1633366 Z M212.504802,30.4242061 L203.043763,30.4242061 L203.948218,22.1379108 L212.504802,30.4242061 Z M217.223228,60.8589887 L220.778479,89.4878506 L198.90863,68.3088346 L199.721785,60.8589887 L217.223228,60.8589887 Z M216.799728,59.1198583 L199.911613,59.1198583 L201.52608,44.3286804 L216.799728,59.1198583 Z M221.958658,123.431621 L192.891939,123.431621 L195.670655,97.9740134 L221.958658,123.431621 Z M213.059443,27.3298758 L204.3067,18.8536182 L204.601916,16.1489574 L211.67095,16.1489574 L213.059443,27.3298758 Z" id="Combined-Shape" fill="#EFF0F0"></path>
                    <polygon id="Rectangle-21" fill="#EFF0F0" points="192.720355 126.220531 226.653712 126.220531 231.014274 130.70895 188.421963 130.70895"></polygon>
                    <g id="Path-7">
                        <use fill="black" fill-opacity="1" filter="url(#filter-22)" xlink:href="#path-21"></use>
                        <use fill="#0F1E24" fill-rule="evenodd" xlink:href="#path-21"></use>
                    </g>
                    <path d="M43.0999188,24.5128124 L43.0999188,29.652779 C47.5037508,30.3620987 49.7056668,32.5640147 49.7056668,36.2585269 C49.7056668,39.9530392 47.5037508,42.1194634 43.0999188,42.7577996" id="Path-8" stroke="#0F1E24" stroke-width="1.73913043" stroke-linecap="round"></path>
                </g>
            </g>
        </g>
    </g>
</svg>