<?xml version="1.0" encoding="UTF-8"?>
<svg width="449px" height="268px" viewBox="0 0 449 268" version="1.1" xmlns="http://www.w3.org/2000/svg" xmlns:xlink="http://www.w3.org/1999/xlink">
    <!-- Generator: Sketch 52.3 (67297) - http://www.bohemiancoding.com/sketch -->
    <title>big-feature-audit-log</title>
    <desc>Created with Sketch.</desc>
    <defs>
        <circle id="path-1" cx="17.3698223" cy="17.3698223" r="17.3698223"></circle>
        <circle id="path-3" cx="17.3698223" cy="17.3698223" r="17.3698223"></circle>
        <circle id="path-5" cx="17.3698223" cy="17.3698223" r="17.3698223"></circle>
        <linearGradient x1="8.64113077%" y1="96.5724002%" x2="91.3588692%" y2="-3.4275998%" id="linearGradient-7">
            <stop stop-color="#C8C8C8" stop-opacity="0.128877944" offset="0%"></stop>
            <stop stop-color="#5D686D" offset="100%"></stop>
        </linearGradient>
    </defs>
    <g id="big-feature-audit-log" stroke="none" stroke-width="1" fill="none" fill-rule="evenodd">
        <g id="Group-10" transform="translate(30.495455, 53.201422)" stroke="#AFB4B6" stroke-linecap="round" stroke-width="1.4">
            <path d="M8.26210676,0.00135531492 L8.26210676,0.00135531492 C12.5866404,0.00135531492 16.0923677,3.50708254 16.0923677,7.83161624 L16.0923677,7.83161624 C16.0923677,12.1561499 12.5866404,15.6618772 8.26210676,15.6618772 L8.26210676,15.6618772 C3.93757306,15.6618772 0.431845835,12.1561499 0.431845835,7.83161624 L0.431845835,7.83161624 C0.431845835,3.50708254 3.93757306,0.00135531492 8.26210676,0.00135531492 Z" id="Rectangle-16"></path>
            <polyline id="Path-33" points="7.86486945 3.74328645 7.86486945 8.98261578 12.9052427 8.98261578"></polyline>
        </g>
        <g id="Group-6" transform="translate(406.561284, 165.265000)" stroke="#F6D672" stroke-linecap="round" stroke-width="1.78">
            <g id="Group-8">
                <g id="Group-9">
                    <path d="M9.97921483,0.460210255 L9.97921483,0.460210255 C15.4775505,0.460210255 19.9348323,4.91749202 19.9348323,10.4158277 L19.9348323,10.4158277 C19.9348323,15.9141634 15.4775505,20.3714452 9.97921483,20.3714452 L9.97921483,20.3714452 C4.48087914,20.3714452 0.0235973768,15.9141634 0.0235973768,10.4158277 L0.0235973768,10.4158277 C0.0235973768,4.91749202 4.48087914,0.460210255 9.97921483,0.460210255 Z" id="Rectangle-16"></path>
                    <polyline id="Path-33" points="10.0243967 5.78976853 10.0243967 11.3072813 15.3323898 11.3072813"></polyline>
                </g>
            </g>
        </g>
        <g id="Group-7" opacity="0.442020089" transform="translate(279.516952, 17.241533)" stroke="#00C7B7" stroke-linecap="round" stroke-width="1.5">
            <path d="M7.36876102,0.14324894 L7.36876102,0.14324894 C11.1626127,0.14324894 14.2381371,3.21877335 14.2381371,7.01262498 L14.2381371,7.01262498 C14.2381371,10.8064766 11.1626127,13.882001 7.36876102,13.882001 L7.36876102,13.882001 C3.57490939,13.882001 0.499384979,10.8064766 0.499384979,7.01262498 L0.499384979,7.01262498 C0.499384979,3.21877335 3.57490939,0.14324894 7.36876102,0.14324894 Z" id="Rectangle-16"></path>
            <polyline id="Path-33" points="7.39993652 3.82064415 7.39993652 7.62772797 11.0624518 7.62772797"></polyline>
        </g>
        <g id="person" transform="translate(359.129617, 190.532999)">
            <mask id="mask-2" fill="white">
                <use xlink:href="#path-1"></use>
            </mask>
            <use id="Oval" fill="#E0E3E3" opacity="0.762723214" xlink:href="#path-1"></use>
            <g id="Group-67" mask="url(#mask-2)" fill="#2D3B41">
                <g transform="translate(17.607692, 23.756789) scale(-1, 1) translate(-17.607692, -23.756789) translate(5.107692, 11.756789)">
                    <circle id="Oval-7" cx="12.0977549" cy="4.35963157" r="3.7806375"></circle>
                    <path d="M0.681722,23.6968151 L4.56768391,15.0123044 C5.89793794,12.0393969 8.85087639,10.1256378 12.1078312,10.1256378 L12.1078312,10.1256378 C15.4108797,10.1256378 18.453052,11.9204176 20.050449,14.8115164 L24.9597761,23.6968151" id="Path-31"></path>
                </g>
            </g>
        </g>
        <g id="person" transform="translate(66.885476, 55.251422)">
            <mask id="mask-4" fill="white">
                <use xlink:href="#path-3"></use>
            </mask>
            <use id="Oval" fill="#E0E3E3" opacity="0.762723214" xlink:href="#path-3"></use>
            <g id="Group-67" mask="url(#mask-4)" fill="#2D3B41">
                <g transform="translate(17.607692, 23.756789) scale(-1, 1) translate(-17.607692, -23.756789) translate(5.107692, 11.756789)">
                    <circle id="Oval-7" cx="12.0977549" cy="4.35963157" r="3.7806375"></circle>
                    <path d="M0.681722,23.6968151 L4.56768391,15.0123044 C5.89793794,12.0393969 8.85087639,10.1256378 12.1078312,10.1256378 L12.1078312,10.1256378 C15.4108797,10.1256378 18.453052,11.9204176 20.050449,14.8115164 L24.9597761,23.6968151" id="Path-31"></path>
                </g>
            </g>
        </g>
        <g id="person" transform="translate(299.000000, 28.751422)">
            <mask id="mask-6" fill="white">
                <use xlink:href="#path-5"></use>
            </mask>
            <use id="Oval" fill="#E0E3E3" opacity="0.762723214" xlink:href="#path-5"></use>
            <g id="Group-67" mask="url(#mask-6)" fill="#2D3B41">
                <g transform="translate(17.607692, 23.756789) scale(-1, 1) translate(-17.607692, -23.756789) translate(5.107692, 11.756789)">
                    <circle id="Oval-7" cx="12.0977549" cy="4.35963157" r="3.7806375"></circle>
                    <path d="M0.681722,23.6968151 L4.56768391,15.0123044 C5.89793794,12.0393969 8.85087639,10.1256378 12.1078312,10.1256378 L12.1078312,10.1256378 C15.4108797,10.1256378 18.453052,11.9204176 20.050449,14.8115164 L24.9597761,23.6968151" id="Path-31"></path>
                </g>
            </g>
        </g>
        <path d="M84.385476,77.1219868 C158.019865,77.1219868 198.318739,77.1219868 205.282096,77.1219868 C215.727132,77.1219868 221.711858,81.3615879 221.711858,91.2977355 C221.711858,97.921834 221.711858,101.202656 221.711858,101.140201" id="Path-34" stroke="url(#linearGradient-7)" stroke-width="1.75315399" opacity="0.21953125"></path>
        <path d="M224.385476,46.1219868 C258.019865,46.1219868 278.318739,46.1219868 285.282096,46.1219868 C295.727132,46.1219868 301.711858,50.3615879 301.711858,60.2977355 C301.711858,66.921834 301.711858,70.2026557 301.711858,70.1402006" id="Path-34" stroke="url(#linearGradient-7)" stroke-width="1.75315399" opacity="0.21953125" transform="translate(263.048667, 58.131531) scale(-1, 1) translate(-263.048667, -58.131531) "></path>
        <path d="M227.385476,156.122862 C292.353199,156.122862 328.318739,156.122862 335.282096,156.122862 C345.727132,156.122862 351.711858,160.362463 351.711858,170.298611 C351.711858,176.922709 351.711858,190.203531 351.711858,210.141076" id="Path-34" stroke="url(#linearGradient-7)" stroke-width="1.75315399" opacity="0.21953125" transform="translate(289.548667, 183.131969) scale(-1, -1) translate(-289.548667, -183.131969) "></path>
        <g id="Group" transform="translate(199.500000, 144.000000) scale(-1, 1) rotate(90.000000) translate(-199.500000, -144.000000) translate(168.500000, 53.500000)">
            <polygon id="Rectangle-2" fill="#E0E3E3" opacity="0.762723214" points="13.858541 72.8624864 13.858541 176.466923 7.13737886 176.466923 7.13737886 72.8624864"></polygon>
            <polygon id="Rectangle-2" fill="#E8EAEA" transform="translate(30.995540, 92.015464) rotate(126.000000) translate(-30.995540, -92.015464) " points="7.48236409 88.7886768 55.2693218 88.5210895 54.5667715 95.2456141 6.72175748 95.5098389"></polygon>
            <circle id="Oval-3" fill="#E0E3E3" opacity="0.762723214" cx="10.4979599" cy="170.932208" r="9.60166023"></circle>
            <circle id="Oval-3" fill="#FFFFFF" cx="11.1313295" cy="170.984982" r="3.63102869"></circle>
            <path d="M0.89629971,64.9101815 C0.89629971,59.607331 5.19510942,55.3085212 10.4979599,55.3085212 C15.8008105,55.3085212 20.0996202,59.607331 20.0996202,64.9101815 C20.0996202,70.213032 15.8008105,74.5118417 10.4979599,74.5118417 C5.19510942,74.5118417 0.89629971,70.213032 0.89629971,64.9101815 Z" id="Oval-3" fill="#E0E3E3" opacity="0.762723214"></path>
            <path d="M7.50030083,64.9629554 C7.50030083,62.9575936 9.12596775,61.3319267 11.1313295,61.3319267 C13.1366913,61.3319267 14.7623582,62.9575936 14.7623582,64.9629554 C14.7623582,66.9683171 13.1366913,68.5939841 11.1313295,68.5939841 C9.12596775,68.5939841 7.50030083,66.9683171 7.50030083,64.9629554 Z" id="Oval-3" fill="#FFFFFF"></path>
            <g id="Group-2" transform="translate(41.232565, 0.000000)">
                <polygon id="Rectangle-2" fill="#E8EAEA" transform="translate(9.656891, 37.477010) rotate(90.000000) translate(-9.656891, -37.477010) " points="-8.06578567 34.5298895 27.3795678 34.5298895 27.3795678 40.4241302 -8.06578567 40.4241302"></polygon>
                <path d="M9.65689105,19.6002547 C14.9597416,19.6002547 19.2585513,15.301445 19.2585513,9.99859451 C19.2585513,4.695744 14.9597416,0.396934287 9.65689105,0.396934287 C4.35404054,0.396934287 0.055230828,4.695744 0.055230828,9.99859451 C0.055230828,15.301445 4.35404054,19.6002547 9.65689105,19.6002547 Z" id="Oval-3" fill="#E8EAEA" transform="translate(9.656891, 9.998595) rotate(90.000000) translate(-9.656891, -9.998595) "></path>
                <path d="M9.65689105,13.6823971 C11.6622528,13.6823971 13.2879197,12.0567302 13.2879197,10.0513684 C13.2879197,8.04600664 11.6622528,6.42033972 9.65689105,6.42033972 C7.65152928,6.42033972 6.02586237,8.04600664 6.02586237,10.0513684 C6.02586237,12.0567302 7.65152928,13.6823971 9.65689105,13.6823971 Z" id="Oval-3" fill="#FFFFFF" transform="translate(9.656891, 10.051368) rotate(90.000000) translate(-9.656891, -10.051368) "></path>
                <path d="M9.65689105,74.5118417 C14.9597416,74.5118417 19.2585513,70.213032 19.2585513,64.9101815 C19.2585513,59.607331 14.9597416,55.3085212 9.65689105,55.3085212 C4.35404054,55.3085212 0.055230828,59.607331 0.055230828,64.9101815 C0.055230828,70.213032 4.35404054,74.5118417 9.65689105,74.5118417 Z" id="Oval-3" fill="#E8EAEA" transform="translate(9.656891, 64.910181) rotate(90.000000) translate(-9.656891, -64.910181) "></path>
                <path d="M9.65689105,68.5939841 C11.6622528,68.5939841 13.2879197,66.9683171 13.2879197,64.9629554 C13.2879197,62.9575936 11.6622528,61.3319267 9.65689105,61.3319267 C7.65152928,61.3319267 6.02586237,62.9575936 6.02586237,64.9629554 C6.02586237,66.9683171 7.65152928,68.5939841 9.65689105,68.5939841 Z" id="Oval-3" fill="#FFFFFF" transform="translate(9.656891, 64.962955) rotate(90.000000) translate(-9.656891, -64.962955) "></path>
            </g>
            <circle id="Oval-3" fill="#00C7B7" transform="translate(10.497960, 118.150498) rotate(90.000000) translate(-10.497960, -118.150498) " cx="10.4979599" cy="118.150498" r="9.60166023"></circle>
            <circle id="Oval-3" fill="#FFFFFF" transform="translate(10.497960, 118.150498) rotate(90.000000) translate(-10.497960, -118.150498) " cx="10.4979599" cy="118.150498" r="3.6341416"></circle>
        </g>
        <g id="Group-3" opacity="0.385100446" transform="translate(344.000000, 59.000000)" stroke="#00C7B7" stroke-linecap="round" stroke-width="2">
            <path d="M0.532884593,1.62623376 L35.5328846,1.62623376" id="Path-48"></path>
            <path d="M0.532884593,7.9595671 L35.5328846,7.9595671" id="Path-48"></path>
            <path d="M0.532884593,14.2929004 L35.5328846,14.2929004" id="Path-48"></path>
            <path d="M0.532884593,20.6262338 L35.5328846,20.6262338" id="Path-48"></path>
        </g>
        <g id="Group-4" transform="translate(317.000000, 231.000000)" stroke="#F6D672" stroke-linecap="round" stroke-width="2">
            <path d="M0.0328845925,1.00733107 L35.0328846,1.00733107" id="Path-48"></path>
            <path d="M0.0328845925,7.3406644 L35.0328846,7.3406644" id="Path-48"></path>
            <path d="M0.0328845925,13.6739977 L35.0328846,13.6739977" id="Path-48"></path>
            <path d="M0.0328845925,20.0073311 L35.0328846,20.0073311" id="Path-48"></path>
        </g>
        <g id="Group-5" transform="translate(34.000000, 101.000000)" stroke="#AFB4B6" stroke-linecap="round" stroke-width="2">
            <path d="M0.309104543,1.76730938 L26.8471463,1.76730938" id="Path-48"></path>
            <path d="M0.309104543,8.10064271 L26.8471463,8.10064271" id="Path-48"></path>
            <path d="M0.309104543,14.433976 L26.8471463,14.433976" id="Path-48"></path>
            <path d="M0.309104543,20.7673094 L26.8471463,20.7673094" id="Path-48"></path>
        </g>
        <g id="Group" transform="translate(12.712121, 7.241533)" fill="#EFF0F0">
            <ellipse id="Oval-16" cx="1.60427807" cy="17.8761332" rx="1.60427807" ry="1.6172158"></ellipse>
            <ellipse id="Oval-16" cx="9.62566845" cy="17.8761332" rx="1.60427807" ry="1.6172158"></ellipse>
            <ellipse id="Oval-16" cx="17.6470588" cy="17.8761332" rx="1.60427807" ry="1.6172158"></ellipse>
            <ellipse id="Oval-16" cx="25.6684492" cy="17.8761332" rx="1.60427807" ry="1.6172158"></ellipse>
            <ellipse id="Oval-16" cx="33.6898396" cy="9.79005421" rx="1.60427807" ry="1.6172158"></ellipse>
            <ellipse id="Oval-16" cx="41.7112299" cy="9.79005421" rx="1.60427807" ry="1.6172158"></ellipse>
            <ellipse id="Oval-16" cx="49.7326203" cy="9.79005421" rx="1.60427807" ry="1.6172158"></ellipse>
            <ellipse id="Oval-16" cx="1.60427807" cy="1.7039752" rx="1.60427807" ry="1.6172158"></ellipse>
            <ellipse id="Oval-16" cx="9.62566845" cy="1.7039752" rx="1.60427807" ry="1.6172158"></ellipse>
        </g>
        <g id="Group" transform="translate(376.629617, 231.000000)" fill="#EFF0F0">
            <ellipse id="Oval-16" cx="1.60427807" cy="17.8761332" rx="1.60427807" ry="1.6172158"></ellipse>
            <ellipse id="Oval-16" cx="9.62566845" cy="17.8761332" rx="1.60427807" ry="1.6172158"></ellipse>
            <ellipse id="Oval-16" cx="17.6470588" cy="17.8761332" rx="1.60427807" ry="1.6172158"></ellipse>
            <ellipse id="Oval-16" cx="25.6684492" cy="17.8761332" rx="1.60427807" ry="1.6172158"></ellipse>
            <ellipse id="Oval-16" cx="33.6898396" cy="9.79005421" rx="1.60427807" ry="1.6172158"></ellipse>
            <ellipse id="Oval-16" cx="41.7112299" cy="9.79005421" rx="1.60427807" ry="1.6172158"></ellipse>
            <ellipse id="Oval-16" cx="49.7326203" cy="9.79005421" rx="1.60427807" ry="1.6172158"></ellipse>
            <ellipse id="Oval-16" cx="1.60427807" cy="1.7039752" rx="1.60427807" ry="1.6172158"></ellipse>
            <ellipse id="Oval-16" cx="9.62566845" cy="1.7039752" rx="1.60427807" ry="1.6172158"></ellipse>
        </g>
        <g id="Group" transform="translate(13.162121, 251.000000)" fill="#EFF0F0">
            <ellipse id="Oval-16" cx="1.60427807" cy="17.8761332" rx="1.60427807" ry="1.6172158"></ellipse>
            <ellipse id="Oval-16" cx="9.62566845" cy="17.8761332" rx="1.60427807" ry="1.6172158"></ellipse>
            <ellipse id="Oval-16" cx="17.6470588" cy="17.8761332" rx="1.60427807" ry="1.6172158"></ellipse>
            <ellipse id="Oval-16" cx="25.6684492" cy="17.8761332" rx="1.60427807" ry="1.6172158"></ellipse>
            <ellipse id="Oval-16" cx="33.6898396" cy="9.79005421" rx="1.60427807" ry="1.6172158"></ellipse>
            <ellipse id="Oval-16" cx="41.7112299" cy="9.79005421" rx="1.60427807" ry="1.6172158"></ellipse>
            <ellipse id="Oval-16" cx="49.7326203" cy="9.79005421" rx="1.60427807" ry="1.6172158"></ellipse>
            <ellipse id="Oval-16" cx="1.60427807" cy="1.7039752" rx="1.60427807" ry="1.6172158"></ellipse>
            <ellipse id="Oval-16" cx="9.62566845" cy="1.7039752" rx="1.60427807" ry="1.6172158"></ellipse>
        </g>
        <g id="Group" transform="translate(424.129617, 123.000000)" fill="#EFF0F0">
            <ellipse id="Oval-16" cx="1.60427807" cy="17.8761332" rx="1.60427807" ry="1.6172158"></ellipse>
            <ellipse id="Oval-16" cx="9.62566845" cy="17.8761332" rx="1.60427807" ry="1.6172158"></ellipse>
            <ellipse id="Oval-16" cx="17.6470588" cy="17.8761332" rx="1.60427807" ry="1.6172158"></ellipse>
            <ellipse id="Oval-16" cx="25.6684492" cy="17.8761332" rx="1.60427807" ry="1.6172158"></ellipse>
            <ellipse id="Oval-16" cx="1.60427807" cy="1.7039752" rx="1.60427807" ry="1.6172158"></ellipse>
            <ellipse id="Oval-16" cx="9.62566845" cy="1.7039752" rx="1.60427807" ry="1.6172158"></ellipse>
        </g>
    </g>
</svg>