<?xml version="1.0" encoding="UTF-8"?>
<svg width="320px" height="341px" viewBox="0 0 320 341" version="1.1" xmlns="http://www.w3.org/2000/svg" xmlns:xlink="http://www.w3.org/1999/xlink">
    <!-- Generator: Sketch 52.3 (67297) - http://www.bohemiancoding.com/sketch -->
    <title>feature-branch-builds</title>
    <desc>Created with Sketch.</desc>
    <defs>
        <linearGradient x1="50%" y1="0%" x2="50%" y2="100%" id="linearGradient-1">
            <stop stop-color="#0F1E24" offset="0%"></stop>
            <stop stop-color="#A3A9AC" offset="100%"></stop>
        </linearGradient>
    </defs>
    <g id="feature-branch-builds" stroke="none" stroke-width="1" fill="none" fill-rule="evenodd">
        <path d="M11.5998601,0.0560489914 L310.2251,0.0560489914 C316.300232,0.0560489914 321.2251,4.98091674 321.2251,11.056049 L321.2251,329.142465 C321.2251,335.217597 316.300232,340.142465 310.2251,340.142465 L11.5998601,340.142465 C5.52472784,340.142465 0.599860085,335.217597 0.599860085,329.142465 L0.599860085,11.056049 C0.599860085,4.98091674 5.52472784,0.0560489914 11.5998601,0.0560489914 Z" id="gradient-background" fill="url(#linearGradient-1)" opacity="0.0370535714"></path>
        <g id="Group" transform="translate(158.007812, 164.748383) rotate(90.000000) translate(-158.007812, -164.748383) translate(118.007812, 74.248383)">
            <polygon id="Rectangle-2" fill="#E0E3E3" opacity="0.762723214" points="31.858541 72.8624864 31.858541 176.466923 25.1373789 176.466923 25.1373789 72.8624864"></polygon>
            <polygon id="Rectangle-2" fill="#E8EAEA" transform="translate(48.995540, 92.015464) rotate(126.000000) translate(-48.995540, -92.015464) " points="25.4823641 88.7886768 73.2693218 88.5210895 72.5667715 95.2456141 24.7217575 95.5098389"></polygon>
            <circle id="Oval-3" fill="#E0E3E3" opacity="0.762723214" cx="28.4979599" cy="170.932208" r="9.60166023"></circle>
            <circle id="Oval-3" fill="#FFFFFF" cx="29.1313295" cy="170.984982" r="3.63102869"></circle>
            <path d="M18.8962997,64.9101815 C18.8962997,59.607331 23.1951094,55.3085212 28.4979599,55.3085212 C33.8008105,55.3085212 38.0996202,59.607331 38.0996202,64.9101815 C38.0996202,70.213032 33.8008105,74.5118417 28.4979599,74.5118417 C23.1951094,74.5118417 18.8962997,70.213032 18.8962997,64.9101815 Z" id="Oval-3" fill="#E0E3E3" opacity="0.762723214"></path>
            <path d="M25.5003008,64.9629554 C25.5003008,62.9575936 27.1259677,61.3319267 29.1313295,61.3319267 C31.1366913,61.3319267 32.7623582,62.9575936 32.7623582,64.9629554 C32.7623582,66.9683171 31.1366913,68.5939841 29.1313295,68.5939841 C27.1259677,68.5939841 25.5003008,66.9683171 25.5003008,64.9629554 Z" id="Oval-3" fill="#FFFFFF"></path>
            <g id="Group-2" transform="translate(59.232565, 0.000000)">
                <polygon id="Rectangle-2" fill="#E8EAEA" transform="translate(9.656891, 37.477010) rotate(90.000000) translate(-9.656891, -37.477010) " points="-8.06578567 34.5298895 27.3795678 34.5298895 27.3795678 40.4241302 -8.06578567 40.4241302"></polygon>
                <path d="M9.65689105,19.6002547 C14.9597416,19.6002547 19.2585513,15.301445 19.2585513,9.99859451 C19.2585513,4.695744 14.9597416,0.396934287 9.65689105,0.396934287 C4.35404054,0.396934287 0.055230828,4.695744 0.055230828,9.99859451 C0.055230828,15.301445 4.35404054,19.6002547 9.65689105,19.6002547 Z" id="Oval-3" fill-opacity="0.292855525" fill="#00C7B7" transform="translate(9.656891, 9.998595) rotate(90.000000) translate(-9.656891, -9.998595) "></path>
                <path d="M9.65689105,13.6823971 C11.6622528,13.6823971 13.2879197,12.0567302 13.2879197,10.0513684 C13.2879197,8.04600664 11.6622528,6.42033972 9.65689105,6.42033972 C7.65152928,6.42033972 6.02586237,8.04600664 6.02586237,10.0513684 C6.02586237,12.0567302 7.65152928,13.6823971 9.65689105,13.6823971 Z" id="Oval-3" fill="#FFFFFF" transform="translate(9.656891, 10.051368) rotate(90.000000) translate(-9.656891, -10.051368) "></path>
                <path d="M9.65689105,74.5118417 C14.9597416,74.5118417 19.2585513,70.213032 19.2585513,64.9101815 C19.2585513,59.607331 14.9597416,55.3085212 9.65689105,55.3085212 C4.35404054,55.3085212 0.055230828,59.607331 0.055230828,64.9101815 C0.055230828,70.213032 4.35404054,74.5118417 9.65689105,74.5118417 Z" id="Oval-3" fill-opacity="0.78626019" fill="#00C7B7" transform="translate(9.656891, 64.910181) rotate(90.000000) translate(-9.656891, -64.910181) "></path>
                <path d="M9.65689105,68.5939841 C11.6622528,68.5939841 13.2879197,66.9683171 13.2879197,64.9629554 C13.2879197,62.9575936 11.6622528,61.3319267 9.65689105,61.3319267 C7.65152928,61.3319267 6.02586237,62.9575936 6.02586237,64.9629554 C6.02586237,66.9683171 7.65152928,68.5939841 9.65689105,68.5939841 Z" id="Oval-3" fill="#FFFFFF" transform="translate(9.656891, 64.962955) rotate(90.000000) translate(-9.656891, -64.962955) "></path>
            </g>
            <circle id="Oval-3" fill="#00C7B7" transform="translate(28.497960, 118.150498) rotate(90.000000) translate(-28.497960, -118.150498) " cx="28.4979599" cy="118.150498" r="9.60166023"></circle>
            <circle id="Oval-3" fill="#FFFFFF" transform="translate(28.497960, 118.150498) rotate(90.000000) translate(-28.497960, -118.150498) " cx="28.4979599" cy="118.150498" r="3.6341416"></circle>
            <g id="Group-4" transform="translate(28.855696, 118.889814) rotate(46.000000) translate(-28.855696, -118.889814) translate(8.355696, 98.889814)" stroke-linecap="round" stroke-width="2">
                <path d="M21.1852451,0.0973526952 L21.1852451,5.7700373" id="Path-11" stroke="#F9D86E"></path>
                <path d="M21.1852451,34.1334603 L21.1852451,39.8061449" id="Path-11" stroke="#00C7B7"></path>
                <path d="M8.37206948,5.40474382 L8.37206948,11.0774284" id="Path-11" stroke="#00C7B7" transform="translate(8.372069, 8.241086) scale(-1, 1) rotate(45.000000) translate(-8.372069, -8.241086) "></path>
                <path d="M32.439232,29.4719063 L32.439232,35.1445909" id="Path-11" stroke="#E7645C" transform="translate(32.439232, 32.308249) scale(-1, 1) rotate(45.000000) translate(-32.439232, -32.308249) "></path>
                <path d="M33.6057966,5.40474382 L33.6057966,11.0774284" id="Path-11" stroke="#E7645C" transform="translate(33.605797, 8.241086) rotate(45.000000) translate(-33.605797, -8.241086) "></path>
                <path d="M9.53863408,29.4719063 L9.53863408,35.1445909" id="Path-11" stroke="#F9D86E" transform="translate(9.538634, 32.308249) rotate(45.000000) translate(-9.538634, -32.308249) "></path>
                <path d="M3.34230556,17.5476681 L3.34230556,23.2203527" id="Path-11" stroke="#E7645C" transform="translate(3.342306, 20.384010) rotate(-90.000000) translate(-3.342306, -20.384010) "></path>
                <path d="M37.3784132,17.5476681 L37.3784132,23.2203527" id="Path-11" stroke="#F9D86E" transform="translate(37.378413, 20.384010) rotate(-90.000000) translate(-37.378413, -20.384010) "></path>
            </g>
        </g>
    </g>
</svg>