<?xml version="1.0" encoding="UTF-8"?>
<svg width="320px" height="341px" viewBox="0 0 320 341" version="1.1" xmlns="http://www.w3.org/2000/svg" xmlns:xlink="http://www.w3.org/1999/xlink">
    <!-- Generator: Sketch 52.3 (67297) - http://www.bohemiancoding.com/sketch -->
    <title>feature-continuous-deployment</title>
    <desc>Created with Sketch.</desc>
    <defs>
        <linearGradient x1="50%" y1="0%" x2="50%" y2="100%" id="linearGradient-1">
            <stop stop-color="#0F1E24" offset="0%"></stop>
            <stop stop-color="#A3A9AC" offset="100%"></stop>
        </linearGradient>
        <path d="M25.5299427,18.3251846 L25.5299427,73.9917831 L0.44130488,73.9917831 L0.44130488,18.3251846 L0.44130488,8.3193711 L98.6214975,8.3193711 L98.6214975,18.3251846 L25.5299427,18.3251846 Z" id="path-2"></path>
        <filter x="-32.6%" y="-42.6%" width="165.2%" height="197.5%" filterUnits="objectBoundingBox" id="filter-3">
            <feOffset dx="0" dy="4" in="SourceAlpha" result="shadowOffsetOuter1"></feOffset>
            <feGaussianBlur stdDeviation="10" in="shadowOffsetOuter1" result="shadowBlurOuter1"></feGaussianBlur>
            <feColorMatrix values="0 0 0 0 0   0 0 0 0 0   0 0 0 0 0  0 0 0 0.0683876812 0" type="matrix" in="shadowBlurOuter1"></feColorMatrix>
        </filter>
        <path d="M3.53890488,0.235297568 L95.5238975,0.235297568 C97.2346547,0.235297568 98.6214975,1.62214033 98.6214975,3.33289757 L98.6214975,8.43751615 L0.44130488,8.43751615 L0.44130488,3.33289757 C0.44130488,1.62214033 1.82814764,0.235297568 3.53890488,0.235297568 Z" id="path-4"></path>
        <filter x="-10.2%" y="-97.5%" width="120.4%" height="343.8%" filterUnits="objectBoundingBox" id="filter-5">
            <feOffset dx="0" dy="2" in="SourceAlpha" result="shadowOffsetOuter1"></feOffset>
            <feGaussianBlur stdDeviation="3" in="shadowOffsetOuter1" result="shadowBlurOuter1"></feGaussianBlur>
            <feColorMatrix values="0 0 0 0 0   0 0 0 0 0   0 0 0 0 0  0 0 0 0.0683876812 0" type="matrix" in="shadowBlurOuter1"></feColorMatrix>
        </filter>
        <linearGradient x1="100%" y1="87.9312694%" x2="0%" y2="5.21353097%" id="linearGradient-6">
            <stop stop-color="#C8C8C8" stop-opacity="0.128877944" offset="0%"></stop>
            <stop stop-color="#5D686D" offset="100%"></stop>
        </linearGradient>
        <rect id="path-7" x="0.676751582" y="0.00287452785" width="56.9583797" height="56.9583797" rx="9.15402532"></rect>
        <filter x="-32.5%" y="-30.7%" width="165.0%" height="165.0%" filterUnits="objectBoundingBox" id="filter-8">
            <feOffset dx="0" dy="1" in="SourceAlpha" result="shadowOffsetOuter1"></feOffset>
            <feGaussianBlur stdDeviation="6" in="shadowOffsetOuter1" result="shadowBlurOuter1"></feGaussianBlur>
            <feColorMatrix values="0 0 0 0 0   0 0 0 0 0   0 0 0 0 0  0 0 0 0.0683876812 0" type="matrix" in="shadowBlurOuter1"></feColorMatrix>
        </filter>
        <radialGradient cx="50%" cy="-50%" fx="50%" fy="-50%" r="100.10989%" gradientTransform="translate(0.500000,-0.500000),scale(1.000000,0.998901),rotate(90.000000),translate(-0.500000,0.500000)" id="radialGradient-9">
            <stop stop-color="#20C6B7" offset="0%"></stop>
            <stop stop-color="#4D9ABF" offset="100%"></stop>
        </radialGradient>
    </defs>
    <g id="feature-continuous-deployment" stroke="none" stroke-width="1" fill="none" fill-rule="evenodd">
        <path d="M11.2422359,0.0560489914 L309.867476,0.0560489914 C315.942608,0.0560489914 320.867476,4.98091674 320.867476,11.056049 L320.867476,329.142465 C320.867476,335.217597 315.942608,340.142465 309.867476,340.142465 L11.2422359,340.142465 C5.16710363,340.142465 0.242235875,335.217597 0.242235875,329.142465 L0.242235875,11.056049 C0.242235875,4.98091674 5.16710363,0.0560489914 11.2422359,0.0560489914 Z" id="gradient-background" fill="url(#linearGradient-1)" opacity="0.0370535714"></path>
        <g id="continuous-deployment-minimal-ver" transform="translate(27.000000, 37.000000)">
            <g id="Group-38" transform="translate(15.631821, 249.590920) scale(-1, 1) translate(-15.631821, -249.590920) translate(0.131821, 233.090920)">
                <path d="M0.691299995,29.0172536 L0.691299995,4.00850081 L30.3716811,4.00850081 L30.3716811,15.5396933 L30.3716811,29.0172536 C29.445377,31.4052237 24.4986468,32.5992088 15.5314905,32.5992088 C7.33547962,32.5992088 0.691299995,30.9955128 0.691299995,29.0172536 Z" id="Combined-Shape" fill="#E9EBEB"></path>
                <path d="M30.337816,16.2901321 C30.337816,14.3118729 23.6936364,12.7081769 15.4976255,12.7081769 C7.30161453,12.7081769 0.657434899,14.3118729 0.657434899,16.2901321" id="Oval-5" stroke="#FFFFFF" stroke-width="2" transform="translate(15.497625, 14.499154) scale(1, -1) translate(-15.497625, -14.499154) "></path>
                <path d="M30.337816,24.9898082 C30.337816,23.0115489 23.6936364,21.4078529 15.4976255,21.4078529 C7.30161453,21.4078529 0.657434899,23.0115489 0.657434899,24.9898082" id="Oval-5" stroke="#FFFFFF" stroke-width="2" transform="translate(15.497625, 23.198831) scale(1, -1) translate(-15.497625, -23.198831) "></path>
                <ellipse id="Oval-5" fill="#E9EBEB" cx="15.4976255" cy="4.00850081" rx="14.8401906" ry="3.58195526"></ellipse>
                <path d="M30.4785066,7.85604313 C30.4785066,5.87778386 23.834327,4.27408787 15.6383161,4.27408787 C7.44230517,4.27408787 0.798125541,5.87778386 0.798125541,7.85604313" id="Oval-5" stroke="#FFFFFF" stroke-width="2" transform="translate(15.638316, 6.065065) scale(1, -1) translate(-15.638316, -6.065065) "></path>
            </g>
            <g id="Group-58" transform="translate(167.684089, 0.545371)">
                <path d="M3.53890488,0.235297568 L95.5238975,0.235297568 C97.2346547,0.235297568 98.6214975,1.62214033 98.6214975,3.33289757 L98.6214975,73.9917831 L0.44130488,73.9917831 L0.44130488,3.33289757 C0.44130488,1.62214033 1.82814764,0.235297568 3.53890488,0.235297568 Z" id="Rectangle-7" fill="#FFFFFF"></path>
                <g id="Combined-Shape">
                    <use fill="black" fill-opacity="1" filter="url(#filter-3)" xlink:href="#path-2"></use>
                    <use fill="#FFFFFF" fill-rule="evenodd" xlink:href="#path-2"></use>
                </g>
                <g id="Rectangle-7">
                    <use fill="black" fill-opacity="1" filter="url(#filter-5)" xlink:href="#path-4"></use>
                    <use fill="#FFFFFF" fill-rule="evenodd" xlink:href="#path-4"></use>
                </g>
                <circle id="Oval-2" fill="#FA3945" opacity="0.568694196" cx="4.87476708" cy="4.35046878" r="1.33098518"></circle>
                <circle id="Oval-2" fill="#F6BC02" opacity="0.568694196" cx="9.05786336" cy="4.35046878" r="1.33098518"></circle>
                <circle id="Oval-2" fill="#00C7B7" opacity="0.568694196" cx="13.2409596" cy="4.35046878" r="1.33098518"></circle>
                <polygon id="Rectangle-12" fill="#E9EBEB" points="21.0884158 2.76215915 91.2887358 2.76215915 91.2887358 5.85975915 21.0884158 5.85975915"></polygon>
                <path d="M33.27977,25.0007016 L51.9632224,25.0007016 C52.8115317,25.0007016 53.4992224,25.6883922 53.4992224,26.5367016 L53.4992224,27.0906103 C53.4992224,27.9389197 52.8115317,28.6266103 51.9632224,28.6266103 L33.27977,28.6266103 C32.4314607,28.6266103 31.74377,27.9389197 31.74377,27.0906103 L31.74377,26.5367016 C31.74377,25.6883922 32.4314607,25.0007016 33.27977,25.0007016 Z" id="Rectangle-8" fill="#E9EBEB" opacity="0.878236607"></path>
                <rect id="Rectangle-4" fill="#E9EBEB" opacity="0.762723214" x="31.74377" y="42.2686191" width="60.733971" height="15.4101121" rx="1.536"></rect>
                <path d="M37.2631956,47.0754551 L76.703747,47.0754551" id="Path-22" stroke="#BEC2C3" stroke-width="0.5"></path>
                <path d="M37.2631956,50.7307445 L51.5754128,50.7307445" id="Path-22" stroke="#BEC2C3" stroke-width="0.5"></path>
                <path d="M37.2631956,53.9327953 L57.4386908,53.9327953" id="Path-22" stroke="#BEC2C3" stroke-width="0.5"></path>
                <path d="M32.5680281,62.0950956 L87.7393972,62.0950956" id="Path-23" stroke="#BEC2C3" stroke-width="0.5"></path>
                <path d="M32.5680281,32.5518622 L87.7393972,32.5518622" id="Path-23" stroke="#BEC2C3" stroke-width="0.5"></path>
                <path d="M32.5680281,37.3846736 L72.3793972,37.3846736" id="Path-23" stroke="#BEC2C3" stroke-width="0.5"></path>
                <path d="M32.5680281,67.2150956 L77.4993972,67.2150956" id="Path-23" stroke="#BEC2C3" stroke-width="0.5"></path>
                <g id="Group-8" transform="translate(6.000000, 25.000000)" stroke-linecap="round" stroke-width="2">
                    <path d="M0.121981765,1.40209619 L13.2230009,1.40209619" id="Path-18" stroke="#E7645C"></path>
                    <path d="M0.121981765,7.2424049 L13.2230009,7.2424049" id="Path-18" stroke="#00C7B7"></path>
                    <path d="M0.121981765,13.0827136 L13.2230009,13.0827136" id="Path-18" stroke="#F9D86E"></path>
                    <path d="M0.121981765,18.9230223 L13.2230009,18.9230223" id="Path-18" stroke="#E7645C"></path>
                    <path d="M0.121981765,24.7633311 L13.2230009,24.7633311" id="Path-18" stroke="#F9D86E"></path>
                    <path d="M0.121981765,30.6036398 L13.2230009,30.6036398" id="Path-18" stroke="#00C7B7"></path>
                </g>
                <g id="Group-17" transform="translate(30.719770, 38.684619)"></g>
            </g>
            <g id="Group-42" opacity="0.524832589" transform="translate(66.497168, 194.846670) rotate(28.000000) translate(-66.497168, -194.846670) translate(52.497168, 161.346670)">
                <path d="M0.184355438,13.1383628 C13.7727274,28.1934247 18.6797627,45.8544787 14.9054615,66.1215248" id="Path-65" stroke="url(#linearGradient-6)" stroke-width="2" stroke-linecap="round" transform="translate(8.160252, 39.629944) scale(-1, 1) translate(-8.160252, -39.629944) "></path>
                <polyline id="Path-61" fill="#5D686D" transform="translate(20.787517, 6.668534) rotate(36.000000) translate(-20.787517, -6.668534) " points="14.2932829 9.85559548 20.7875168 3.48147175 27.2817508 9.85559548"></polyline>
            </g>
            <g id="Group-42" opacity="0.524832589" transform="translate(196.367197, 108.233061) scale(-1, 1) rotate(-59.000000) translate(-196.367197, -108.233061) translate(183.867197, 74.233061)">
                <path d="M0.763064207,12.9078652 C13.3247162,29.3256623 16.638245,47.4407486 10.7036506,67.2531241" id="Path-65" stroke="url(#linearGradient-6)" stroke-width="2" stroke-linecap="round" transform="translate(7.161461, 40.080495) scale(-1, 1) translate(-7.161461, -40.080495) "></path>
                <polyline id="Path-61" fill="#5D686D" transform="translate(18.045106, 6.551542) rotate(36.000000) translate(-18.045106, -6.551542) " points="11.7828085 9.68269029 18.0451055 3.4203933 24.3074025 9.68269029"></polyline>
            </g>
            <g id="Group-6" transform="translate(103.000000, 109.500000)">
                <g id="Group-27" transform="translate(0.557514, 0.635998)">
                    <g id="Rectangle-8">
                        <use fill="black" fill-opacity="1" filter="url(#filter-8)" xlink:href="#path-7"></use>
                        <use fill="#FFFFFF" fill-rule="evenodd" xlink:href="#path-7"></use>
                    </g>
                </g>
                <g id="logomark" transform="translate(8.757776, 7.208097)" fill="url(#radialGradient-9)" fill-rule="nonzero">
                    <path d="M30.3736279,15.4921925 L30.3583098,15.4856275 C30.3495565,15.4823451 30.3408033,15.4790626 30.3331442,15.4714035 C30.3077,15.4440736 30.2963821,15.4064818 30.3025078,15.369647 L31.1482904,10.1986655 L35.1146061,14.1660753 L30.9896378,15.9211016 C30.9781743,15.9257243 30.9658877,15.9279583 30.9535306,15.9276666 L30.9371183,15.9276666 C30.9316475,15.9243841 30.9261767,15.9200075 30.9152352,15.9090659 C30.7617242,15.7381428 30.5781476,15.5968445 30.3736279,15.4921925 Z M36.1267004,15.1770755 L40.3676492,19.4180243 C41.2484448,20.2999141 41.6893897,20.7397648 41.8502306,21.2496415 C41.8743021,21.3251383 41.8939969,21.4006351 41.9093151,21.4783202 L31.7741477,17.185946 C31.7687013,17.1836971 31.7632302,17.1815086 31.7577353,17.1793811 C31.7172516,17.1629687 31.6702029,17.1443681 31.6702029,17.1027901 C31.6702029,17.0612122 31.7183457,17.0415174 31.7588295,17.0251051 L31.7719594,17.0196343 L36.1267004,15.1770755 Z M41.7364384,22.8394503 C41.5176072,23.2508529 41.0908864,23.6775738 40.3687434,24.4008109 L35.5872815,29.1811787 L29.4031115,27.893357 L29.3702869,27.8867921 C29.3155791,27.8780388 29.2575888,27.8681914 29.2575888,27.8189544 C29.2101121,27.3032686 28.9505356,26.8304828 28.5409166,26.5136262 C28.515751,26.4884607 28.5223159,26.449071 28.529975,26.4129639 C28.529975,26.4074931 28.529975,26.4020223 28.5321633,26.3976457 L29.6952512,19.2571834 L29.6996278,19.233112 C29.7061928,19.1784042 29.7160402,19.1149431 29.7652772,19.1149431 C30.2687682,19.0523085 30.7260375,18.7901671 31.0344982,18.3873293 C31.0443456,18.3763878 31.0509105,18.3643521 31.0640404,18.3577871 C31.0990534,18.3413748 31.1406313,18.3577871 31.1767385,18.3731053 L41.7353443,22.8394503 L41.7364384,22.8394503 Z M34.4876547,30.2808055 L26.6250494,38.1434108 L27.9708613,29.8715911 L27.9730496,29.8606496 C27.9741437,29.849708 27.9763321,29.8387665 27.9796145,29.828919 C27.9905561,29.8026593 28.0190041,29.7917177 28.046358,29.7807762 L28.0594879,29.7753054 C28.3541614,29.649581 28.6147843,29.4557076 28.8199264,29.2096267 C28.8461861,29.1789904 28.8779166,29.1494481 28.9184004,29.1439774 C28.9289077,29.1422621 28.9396236,29.1422621 28.9501309,29.1439774 L34.4865605,30.2818996 L34.4876547,30.2808055 Z M24.960838,39.8076221 L24.0745716,40.6938885 L14.2764043,26.5333211 C14.2728611,26.5281415 14.2692131,26.5230344 14.2654627,26.5180029 C14.2501445,26.4972139 14.2337322,26.4764249 14.2370147,26.4523535 C14.2381088,26.434847 14.2490504,26.4195288 14.2610861,26.406399 L14.2720277,26.3921749 C14.3015699,26.3484087 14.3267355,26.3046424 14.3540894,26.2575937 L14.3759725,26.2192983 L14.379255,26.2160158 C14.3945731,26.1897561 14.4087972,26.1645905 14.4350569,26.1503664 C14.4580342,26.1394249 14.4897647,26.1438015 14.5149303,26.1492723 L25.3700524,28.3879155 C25.4004045,28.3926355 25.4290369,28.405068 25.4532082,28.4240227 C25.4674323,28.4382467 25.4707147,28.4535649 25.4739972,28.4710714 C25.6274861,29.051806 26.0435965,29.5274185 26.5987896,29.7567048 C26.629426,29.7720229 26.6162961,29.8059418 26.6020721,29.8420489 C26.5949753,29.8578738 26.5894773,29.874368 26.5856597,29.8912859 C26.4488902,30.7228445 25.275955,37.8764367 24.960838,39.8076221 Z M23.109526,41.65784 C22.4563148,42.3044862 22.0711719,42.6469571 21.6356978,42.7848207 C21.2063248,42.9205948 20.7455186,42.9205948 20.3161456,42.7848207 C19.8062689,42.6228856 19.365324,42.1830349 18.4845284,41.3011451 L8.64478315,31.4613999 L11.2149557,27.4753894 C11.2269914,27.4556946 11.2390271,27.4381881 11.2587219,27.4239641 C11.2860758,27.4042693 11.3254654,27.4130225 11.3582901,27.4239641 C11.9482158,27.601941 12.5816042,27.5698462 13.1505177,27.3331491 C13.1800599,27.3222076 13.2096021,27.3145485 13.2325794,27.3353374 C13.2440694,27.3458254 13.2543459,27.3575699 13.2632158,27.3703504 L23.109526,41.6589342 L23.109526,41.65784 Z M7.69614986,30.5127666 L5.43890595,28.2555227 L9.89649766,26.3538795 C9.90789162,26.3489111 9.920175,26.3463055 9.9326048,26.3462204 C9.96980611,26.3462204 9.99168923,26.3834217 10.011384,26.4173405 C10.056181,26.4862596 10.10363,26.5534182 10.1536243,26.6186652 L10.1678484,26.6361717 C10.1809782,26.6547724 10.172225,26.673373 10.1590951,26.6908795 L7.69724402,30.5127666 L7.69614986,30.5127666 Z M4.43994148,27.2565582 L1.58419422,24.4008109 C1.09838894,23.9150057 0.746070692,23.5626874 0.500979739,23.2596062 L9.18420207,25.060587 C9.19510972,25.0626086 9.20605307,25.0644325 9.21702675,25.0660578 C9.2706404,25.0748111 9.32972483,25.0846585 9.32972483,25.1349896 C9.32972483,25.1896974 9.26516962,25.214863 9.21046182,25.235652 L9.18529623,25.2465936 L4.43994148,27.2565582 Z M0.00204458518,21.7912488 C0.0119403034,21.6072877 0.0450267074,21.4253124 0.100518629,21.2496415 C0.262453723,20.7397648 0.702304451,20.2999141 1.58419422,19.4180243 L5.23867539,15.7635432 C6.92130481,18.2055678 8.60849637,20.6444459 10.3002412,23.0801646 C10.3297834,23.1195542 10.3626081,23.1633205 10.3286893,23.1961451 C10.1689425,23.3723043 10.0091957,23.5648757 9.89649766,23.7738595 C9.8842716,23.8007221 9.86545258,23.8240577 9.84178985,23.8416972 C9.82756583,23.8504504 9.81224764,23.847168 9.7958353,23.8438855 L9.79364699,23.8438855 L0.00204458518,21.7901546 L0.00204458518,21.7912488 Z M6.21685089,14.7853677 L11.1307057,9.87151288 C11.5924395,10.0739317 13.2730632,10.784039 14.7764336,11.4186495 C15.9143559,11.9000782 16.9516158,12.3377406 17.2776743,12.4799809 C17.310499,12.4931107 17.3400412,12.5062406 17.3542652,12.5390653 C17.3630185,12.5587601 17.3586418,12.5839257 17.3542652,12.6047147 C17.1962591,13.3252385 17.411317,14.0769134 17.9265088,14.6048319 C17.9593335,14.6376566 17.9265088,14.6847053 17.8980608,14.7251891 L17.8827426,14.7481663 L12.893391,22.4761905 C12.8802612,22.4980736 12.8682255,22.5166742 12.8463423,22.5308983 C12.8200826,22.5473106 12.7828813,22.5396515 12.7522449,22.5319924 C12.5581908,22.4811512 12.3587003,22.4539647 12.1581182,22.4510249 C11.9786766,22.4510249 11.7839168,22.4838496 11.5869687,22.5199567 L11.5858746,22.5199567 C11.5639915,22.5232392 11.5442967,22.5276158 11.5267902,22.5144859 C11.5074547,22.4986843 11.4908242,22.4798365 11.4775531,22.458684 L6.21685089,14.7853677 Z M12.1231052,8.87911335 L18.4845284,2.51769013 C19.365324,1.63689452 19.8062689,1.19594964 20.3161456,1.0351087 C20.7455186,0.899334661 21.2063248,0.899334661 21.6356978,1.0351087 C22.1455745,1.19594964 22.5865194,1.63689452 23.467315,2.51769013 L24.8459516,3.89632674 L20.3216164,10.903302 C20.3104239,10.9237005 20.2951538,10.9415777 20.276756,10.9558215 C20.2494021,10.9744222 20.2111066,10.9667631 20.178282,10.9558215 C19.4541096,10.736056 18.6681458,10.8875178 18.0775024,11.3606592 C18.0479602,11.3912956 18.0041939,11.3737891 17.9669926,11.3573768 C17.3761483,11.1002501 12.780693,9.15812314 12.1231052,8.87911335 Z M25.8066206,4.85699575 L29.9841084,9.03448351 L28.9774848,15.2689846 L28.9774848,15.285397 C28.9765861,15.2996057 28.9736378,15.3136098 28.9687316,15.3269749 C28.95779,15.348858 28.9359069,15.3532346 28.9140238,15.3597996 C28.6988023,15.424991 28.4961003,15.5259721 28.3144263,15.6585042 C28.3066158,15.6640703 28.2992949,15.6702931 28.2925432,15.6771048 C28.2805074,15.6902347 28.2684717,15.7022704 28.2487769,15.7044587 C28.2327475,15.704954 28.2167729,15.7023535 28.2017282,15.6967996 L21.8359284,12.9920459 L21.8238926,12.9865751 C21.7834089,12.9701628 21.735266,12.950468 21.735266,12.90889 C21.6978494,12.5541474 21.5819883,12.2121704 21.3960776,11.9077373 C21.3654413,11.8574061 21.3315224,11.8048866 21.3577822,11.7534613 L25.8066206,4.85699575 Z M21.5043991,14.2733026 L27.4719261,16.8008031 C27.5047508,16.8161213 27.540858,16.8303453 27.555082,16.8642641 C27.5607763,16.8846632 27.5607763,16.906232 27.555082,16.926631 C27.5375755,17.0141635 27.5222573,17.1137317 27.5222573,17.2143941 L27.5222573,17.3817999 C27.5222573,17.4233779 27.4795852,17.4408844 27.4401956,17.4572967 L27.4281599,17.4616733 C26.4828091,17.8654169 14.1560471,23.1217425 14.1374465,23.1217425 C14.1188458,23.1217425 14.099151,23.1217425 14.0805504,23.1031419 C14.0477257,23.0703172 14.0805504,23.0243626 14.1100926,22.9827847 C14.1153155,22.9755728 14.1204222,22.9682775 14.1254108,22.9609016 L19.0294181,15.3674587 L19.0381714,15.3543288 C19.0666194,15.3083742 19.0994441,15.2569489 19.1519636,15.2569489 L19.2012006,15.264608 C19.3128045,15.2799262 19.4112786,15.2941502 19.5108468,15.2941502 C20.2548729,15.2941502 20.9441912,14.9319846 21.3599705,14.3126922 C21.3698767,14.2961548 21.3824463,14.281367 21.3971718,14.268926 C21.426714,14.2470429 21.4704802,14.2579844 21.5043991,14.2733026 Z M14.6703005,24.3231259 L28.1065366,18.5930307 C28.1065366,18.5930307 28.1262314,18.5930307 28.1448321,18.6116313 C28.2181405,18.6849398 28.2805074,18.7341768 28.340686,18.7801314 L28.3702282,18.798732 C28.3975821,18.8140502 28.424936,18.8315567 28.4271244,18.8600047 C28.4271244,18.8709463 28.4271244,18.8775112 28.424936,18.8873586 L27.2738839,25.957795 L27.2695073,25.986243 C27.2618482,26.0409508 27.2541891,26.1033177 27.2027637,26.1033177 C26.5797447,26.1453699 26.0176084,26.4921502 25.7004875,27.0300679 L25.6950167,27.0388211 C25.6796985,27.0639867 25.6654745,27.0880582 25.6403089,27.101188 C25.6173316,27.1121296 25.5877894,27.107753 25.563718,27.1022822 L14.8486479,24.892087 C14.8377063,24.8898987 14.6823362,24.32422 14.6703005,24.3231259 Z" id="Shape"></path>
                </g>
            </g>
        </g>
    </g>
</svg>