<?xml version="1.0" encoding="UTF-8"?>
<svg width="134px" height="101px" viewBox="0 0 134 101" version="1.1" xmlns="http://www.w3.org/2000/svg" xmlns:xlink="http://www.w3.org/1999/xlink">
    <!-- Generator: Sketch 52.3 (67297) - http://www.bohemiancoding.com/sketch -->
    <title>feature-branches-small</title>
    <desc>Created with Sketch.</desc>
    <g id="feature-branches-small" stroke="none" stroke-width="1" fill="none" fill-rule="evenodd">
        <g id="Group" transform="translate(68.194319, 47.599179) rotate(90.000000) translate(-68.194319, -47.599179) translate(42.194319, -10.900821)">
            <polygon id="Rectangle-2" fill="#E0E3E3" opacity="0.762723214" points="20.5909794 46.8701806 20.5909794 113.515706 16.267464 113.515706 16.267464 46.8701806"></polygon>
            <polygon id="Rectangle-2" fill="#E8EAEA" transform="translate(31.614680, 59.190698) rotate(126.000000) translate(-31.614680, -59.190698) " points="16.4893823 57.1150056 47.229252 56.942875 46.7773232 61.2685533 16.0001076 61.438521"></polygon>
            <circle id="Oval-3" fill="#E0E3E3" opacity="0.762723214" cx="18.4292217" cy="109.955395" r="6.17645061"></circle>
            <circle id="Oval-3" fill="#FFFFFF" cx="18.8366487" cy="109.989342" r="2.33572828"></circle>
            <path d="M12.2527711,41.7547091 C12.2527711,38.3435497 15.0180622,35.5782585 18.4292217,35.5782585 C21.8403812,35.5782585 24.6056723,38.3435497 24.6056723,41.7547091 C24.6056723,45.1658686 21.8403812,47.9311598 18.4292217,47.9311598 C15.0180622,47.9311598 12.2527711,45.1658686 12.2527711,41.7547091 Z" id="Oval-3" fill="#E0E3E3" opacity="0.762723214"></path>
            <path d="M16.5009205,41.788657 C16.5009205,40.4986698 17.5466616,39.4529287 18.8366487,39.4529287 C20.1266359,39.4529287 21.172377,40.4986698 21.172377,41.788657 C21.172377,43.0786441 20.1266359,44.1243852 18.8366487,44.1243852 C17.5466616,44.1243852 16.5009205,43.0786441 16.5009205,41.788657 Z" id="Oval-3" fill="#FFFFFF"></path>
            <g id="Group-2" transform="translate(38.199841, 0.000000)">
                <polygon id="Rectangle-2" fill="#E8EAEA" transform="translate(6.211979, 24.107800) rotate(90.000000) translate(-6.211979, -24.107800) " points="-5.18847008 22.2120084 17.6124279 22.2120084 17.6124279 26.0035908 -5.18847008 26.0035908"></polygon>
                <path d="M6.21197889,12.6082368 C9.62313837,12.6082368 12.3884295,9.84294562 12.3884295,6.43178614 C12.3884295,3.02062666 9.62313837,0.255335532 6.21197889,0.255335532 C2.80081941,0.255335532 0.0355282809,3.02062666 0.0355282809,6.43178614 C0.0355282809,9.84294562 2.80081941,12.6082368 6.21197889,12.6082368 Z" id="Oval-3" fill-opacity="0.292855525" fill="#00C7B7" transform="translate(6.211979, 6.431786) rotate(90.000000) translate(-6.211979, -6.431786) "></path>
                <path d="M6.21197889,8.80146224 C7.501966,8.80146224 8.54770718,7.75572107 8.54770718,6.46573395 C8.54770718,5.17574684 7.501966,4.13000567 6.21197889,4.13000567 C4.92199178,4.13000567 3.87625061,5.17574684 3.87625061,6.46573395 C3.87625061,7.75572107 4.92199178,8.80146224 6.21197889,8.80146224 Z" id="Oval-3" fill="#FFFFFF" transform="translate(6.211979, 6.465734) rotate(90.000000) translate(-6.211979, -6.465734) "></path>
                <path d="M6.21197889,47.9311598 C9.62313837,47.9311598 12.3884295,45.1658686 12.3884295,41.7547091 C12.3884295,38.3435497 9.62313837,35.5782585 6.21197889,35.5782585 C2.80081941,35.5782585 0.0355282809,38.3435497 0.0355282809,41.7547091 C0.0355282809,45.1658686 2.80081941,47.9311598 6.21197889,47.9311598 Z" id="Oval-3" fill-opacity="0.78626019" fill="#00C7B7" transform="translate(6.211979, 41.754709) rotate(90.000000) translate(-6.211979, -41.754709) "></path>
                <path d="M6.21197889,44.1243852 C7.501966,44.1243852 8.54770718,43.0786441 8.54770718,41.788657 C8.54770718,40.4986698 7.501966,39.4529287 6.21197889,39.4529287 C4.92199178,39.4529287 3.87625061,40.4986698 3.87625061,41.788657 C3.87625061,43.0786441 4.92199178,44.1243852 6.21197889,44.1243852 Z" id="Oval-3" fill="#FFFFFF" transform="translate(6.211979, 41.788657) rotate(90.000000) translate(-6.211979, -41.788657) "></path>
            </g>
            <circle id="Oval-3" fill="#00C7B7" transform="translate(18.429222, 76.002555) rotate(90.000000) translate(-18.429222, -76.002555) " cx="18.4292217" cy="76.0025554" r="6.17645061"></circle>
            <circle id="Oval-3" fill="#FFFFFF" transform="translate(18.429222, 76.002555) rotate(90.000000) translate(-18.429222, -76.002555) " cx="18.4292217" cy="76.0025554" r="2.33773073"></circle>
            <g id="Group-4" transform="translate(18.432594, 76.437122) rotate(46.000000) translate(-18.432594, -76.437122) translate(5.432594, 63.437122)" stroke-linecap="round" stroke-width="2">
                <path d="M13.627812,0.0626239733 L13.627812,3.71168627" id="Path-11" stroke="#F9D86E"></path>
                <path d="M13.627812,21.9569977 L13.627812,25.60606" id="Path-11" stroke="#00C7B7"></path>
                <path d="M5.38549297,3.47670429 L5.38549297,7.12576658" id="Path-11" stroke="#00C7B7" transform="translate(5.385493, 5.301235) scale(-1, 1) rotate(45.000000) translate(-5.385493, -5.301235) "></path>
                <path d="M20.8671531,18.9583644 L20.8671531,22.6074267" id="Path-11" stroke="#E7645C" transform="translate(20.867153, 20.782896) scale(-1, 1) rotate(45.000000) translate(-20.867153, -20.782896) "></path>
                <path d="M21.617568,3.47670429 L21.617568,7.12576658" id="Path-11" stroke="#E7645C" transform="translate(21.617568, 5.301235) rotate(45.000000) translate(-21.617568, -5.301235) "></path>
                <path d="M6.13590785,18.9583644 L6.13590785,22.6074267" id="Path-11" stroke="#F9D86E" transform="translate(6.135908, 20.782896) rotate(45.000000) translate(-6.135908, -20.782896) "></path>
                <path d="M2.15000164,11.2878713 L2.15000164,14.9369336" id="Path-11" stroke="#E7645C" transform="translate(2.150002, 13.112402) rotate(-90.000000) translate(-2.150002, -13.112402) "></path>
                <path d="M24.0443754,11.2878713 L24.0443754,14.9369336" id="Path-11" stroke="#F9D86E" transform="translate(24.044375, 13.112402) rotate(-90.000000) translate(-24.044375, -13.112402) "></path>
            </g>
        </g>
    </g>
</svg>