<?xml version="1.0" encoding="UTF-8"?>
<svg width="620px" height="212px" viewBox="0 0 620 212" version="1.1" xmlns="http://www.w3.org/2000/svg" xmlns:xlink="http://www.w3.org/1999/xlink">
    <!-- Generator: Sketch 52.3 (67297) - http://www.bohemiancoding.com/sketch -->
    <title>publish-a-branch</title>
    <desc>Created with Sketch.</desc>
    <defs>
        <linearGradient x1="50%" y1="0%" x2="50%" y2="100%" id="linearGradient-1">
            <stop stop-color="#0F1E24" offset="0%"></stop>
            <stop stop-color="#A3A9AC" offset="100%"></stop>
        </linearGradient>
        <path d="M6.73400101,0.012377992 L155.844593,0.012377992 C159.185915,0.012377992 161.894593,2.72105526 161.894593,6.06237799 L161.894593,112.398393 L0.684001007,112.398393 L0.684001007,6.06237799 C0.684001007,2.72105526 3.39267827,0.012377992 6.73400101,0.012377992 Z" id="path-2"></path>
        <filter x="-8.7%" y="-11.6%" width="117.4%" height="124.9%" filterUnits="objectBoundingBox" id="filter-3">
            <feOffset dx="0" dy="1" in="SourceAlpha" result="shadowOffsetOuter1"></feOffset>
            <feGaussianBlur stdDeviation="4.5" in="shadowOffsetOuter1" result="shadowBlurOuter1"></feGaussianBlur>
            <feColorMatrix values="0 0 0 0 0   0 0 0 0 0   0 0 0 0 0  0 0 0 0.0683876812 0" type="matrix" in="shadowBlurOuter1"></feColorMatrix>
        </filter>
        <path d="M6.73400101,0.012377992 L155.844593,0.012377992 C159.185915,0.012377992 161.894593,2.72105526 161.894593,6.06237799 L161.894593,13.4803136 L0.684001007,13.4803136 L0.684001007,6.06237799 C0.684001007,2.72105526 3.39267827,0.012377992 6.73400101,0.012377992 Z" id="path-4"></path>
        <filter x="-11.8%" y="-126.2%" width="123.6%" height="382.2%" filterUnits="objectBoundingBox" id="filter-5">
            <feOffset dx="0" dy="2" in="SourceAlpha" result="shadowOffsetOuter1"></feOffset>
            <feGaussianBlur stdDeviation="6" in="shadowOffsetOuter1" result="shadowBlurOuter1"></feGaussianBlur>
            <feColorMatrix values="0 0 0 0 0   0 0 0 0 0   0 0 0 0 0  0 0 0 0.0683876812 0" type="matrix" in="shadowBlurOuter1"></feColorMatrix>
        </filter>
        <path d="M1.3917979,0.238010451 L68.4621122,0.238010451 C69.1086245,0.238010451 69.6327262,0.762112183 69.6327262,1.40862443 L69.6327262,39.417702 C69.6327262,40.0642143 69.1086245,40.588316 68.4621122,40.588316 L1.3917979,40.588316 C0.745285649,40.588316 0.221183917,40.0642143 0.221183917,39.417702 L0.221183917,1.40862443 C0.221183917,0.762112183 0.745285649,0.238010451 1.3917979,0.238010451 Z" id="path-6"></path>
        <filter x="-15.8%" y="-24.8%" width="131.7%" height="154.5%" filterUnits="objectBoundingBox" id="filter-7">
            <feOffset dx="0" dy="1" in="SourceAlpha" result="shadowOffsetOuter1"></feOffset>
            <feGaussianBlur stdDeviation="3.5" in="shadowOffsetOuter1" result="shadowBlurOuter1"></feGaussianBlur>
            <feColorMatrix values="0 0 0 0 0   0 0 0 0 0   0 0 0 0 0  0 0 0 0.0683876812 0" type="matrix" in="shadowBlurOuter1"></feColorMatrix>
        </filter>
        <path d="M1.3917979,0.238010451 L68.4621122,0.238010451 C69.1086245,0.238010451 69.6327262,0.762112183 69.6327262,1.40862443 L69.6327262,39.417702 C69.6327262,40.0642143 69.1086245,40.588316 68.4621122,40.588316 L1.3917979,40.588316 C0.745285649,40.588316 0.221183917,40.0642143 0.221183917,39.417702 L0.221183917,1.40862443 C0.221183917,0.762112183 0.745285649,0.238010451 1.3917979,0.238010451 Z" id="path-8"></path>
        <filter x="-15.8%" y="-24.8%" width="131.7%" height="154.5%" filterUnits="objectBoundingBox" id="filter-9">
            <feOffset dx="0" dy="1" in="SourceAlpha" result="shadowOffsetOuter1"></feOffset>
            <feGaussianBlur stdDeviation="3.5" in="shadowOffsetOuter1" result="shadowBlurOuter1"></feGaussianBlur>
            <feColorMatrix values="0 0 0 0 0   0 0 0 0 0   0 0 0 0 0  0 0 0 0.0683876812 0" type="matrix" in="shadowBlurOuter1"></feColorMatrix>
        </filter>
        <path d="M1.3917979,0.238010451 L68.4621122,0.238010451 C69.1086245,0.238010451 69.6327262,0.762112183 69.6327262,1.40862443 L69.6327262,39.417702 C69.6327262,40.0642143 69.1086245,40.588316 68.4621122,40.588316 L1.3917979,40.588316 C0.745285649,40.588316 0.221183917,40.0642143 0.221183917,39.417702 L0.221183917,1.40862443 C0.221183917,0.762112183 0.745285649,0.238010451 1.3917979,0.238010451 Z" id="path-10"></path>
        <filter x="-15.8%" y="-24.8%" width="131.7%" height="154.5%" filterUnits="objectBoundingBox" id="filter-11">
            <feOffset dx="0" dy="1" in="SourceAlpha" result="shadowOffsetOuter1"></feOffset>
            <feGaussianBlur stdDeviation="3.5" in="shadowOffsetOuter1" result="shadowBlurOuter1"></feGaussianBlur>
            <feColorMatrix values="0 0 0 0 0   0 0 0 0 0   0 0 0 0 0  0 0 0 0.0683876812 0" type="matrix" in="shadowBlurOuter1"></feColorMatrix>
        </filter>
    </defs>
    <g id="publish-a-branch" stroke="none" stroke-width="1" fill="none" fill-rule="evenodd">
        <g id="Group-44" transform="translate(0.049185, -0.113807)" fill="url(#linearGradient-1)" opacity="0.0370535714">
            <path d="M10,0.885910493 L610,0.885910493 C615.522847,0.885910493 620,5.36306299 620,10.8859105 L620,201.791597 C620,207.314445 615.522847,211.791597 610,211.791597 L10,211.791597 C4.4771525,211.791597 6.76353751e-16,207.314445 0,201.791597 L0,10.8859105 C-6.76353751e-16,5.36306299 4.4771525,0.885910493 10,0.885910493 Z" id="gradient-background"></path>
        </g>
        <g id="Group-2" transform="translate(348.920151, 41.737183)">
            <g id="Group-27" transform="translate(0.008833, 0.970798)">
                <g id="Rectangle-7" opacity="0.786830357">
                    <use fill="black" fill-opacity="1" filter="url(#filter-3)" xlink:href="#path-2"></use>
                    <use fill="#FFFFFF" fill-rule="evenodd" xlink:href="#path-2"></use>
                </g>
                <g id="Rectangle-7">
                    <use fill="black" fill-opacity="1" filter="url(#filter-5)" xlink:href="#path-4"></use>
                    <use fill="#FFFFFF" fill-rule="evenodd" xlink:href="#path-4"></use>
                </g>
                <path d="M0.745713004,13.6202426 L161.689026,13.6202426" id="Path-32" stroke="#C5C9CB" stroke-width="0.847" opacity="0.536439732"></path>
                <g id="Group-3" transform="translate(5.778228, 4.583975)" opacity="0.568694196">
                    <circle id="Oval-2" fill="#FA3945" cx="2.18546025" cy="2.18546025" r="2.18546025"></circle>
                    <circle id="Oval-2" fill="#F6BC02" cx="9.0540496" cy="2.18546025" r="2.18546025"></circle>
                    <circle id="Oval-2" fill="#00C7B7" cx="15.922639" cy="2.18546025" r="2.18546025"></circle>
                </g>
                <polygon id="Rectangle-12" fill="#C6CACB" opacity="0.373716518" points="34.586287 4.16145164 127.155467 4.16145164 127.155467 9.24767031 34.586287 9.24767031"></polygon>
            </g>
            <g id="document-small" transform="translate(6.167284, 20.392863)">
                <polygon id="Rectangle-7" fill="#BBC1C4" points="0.475452494 0.511622473 149.681106 0.511622473 149.681106 10.0743259 0.475452494 10.0743259"></polygon>
                <path d="M2.48221932,0.511622473 L147.674339,0.511622473 C148.782646,0.511622473 149.681106,1.41008259 149.681106,2.5183893 L149.681106,85.24106 C149.681106,86.3493667 148.782646,87.2478268 147.674339,87.2478268 L2.48221932,87.2478268 C1.37391261,87.2478268 0.475452494,86.3493667 0.475452494,85.24106 L0.475452494,2.5183893 C0.475452494,1.41008259 1.37391261,0.511622473 2.48221932,0.511622473 Z" id="Rectangle-7" fill="#FFFFFF"></path>
                <path d="M36.9947785,9.67440902 L36.9947785,87.2478268 L2.48221932,87.2478268 C1.37391261,87.2478268 0.475452494,86.3493667 0.475452494,85.24106 L0.475452494,7.66764219 L0.475452494,2.5183893 C0.475452494,1.41008259 1.37391261,0.511622473 2.48221932,0.511622473 L149.681106,0.511622473 L149.681106,9.67440902 L36.9947785,9.67440902 Z" id="Combined-Shape" fill="#0F1E24"></path>
                <g id="Group-35" transform="translate(7.443801, 21.883089)" stroke-linecap="round" stroke-width="2.70913522">
                    <path d="M0.631959208,1.25633967 L15.141323,1.25633967" id="Path-18" stroke="#FA3945"></path>
                    <path d="M0.631959208,10.457355 L20.1148448,10.457355" id="Path-18" stroke="#00C7B7"></path>
                    <path d="M0.631959208,19.6583703 L15.141323,19.6583703" id="Path-18" stroke="#FA3945"></path>
                    <path d="M0.631959208,28.8593856 L11.4111816,28.8593856" id="Path-18" stroke="#FAD96F"></path>
                    <path d="M0.631959208,38.0604009 L21.3582252,38.0604009" id="Path-18" stroke="#00C7B7"></path>
                    <path d="M0.631959208,47.2614162 L15.141323,47.2614162" id="Path-18" stroke="#FAD96F"></path>
                </g>
                <g id="Group-68" transform="translate(45.602110, 19.827004)">
                    <polygon id="Rectangle-8" fill="#E4E5E5" points="0.529939802 0.896003264 33.6867517 0.896003264 33.6867517 6.42213858 0.529939802 6.42213858"></polygon>
                    <g id="Group-16" transform="translate(0.000000, 22.497691)">
                        <polygon id="Rectangle-4" fill="#C6CACB" opacity="0.373716518" points="0.529939802 0.177628999 93.0927064 0.177628999 93.0927064 23.6637041 0.529939802 23.6637041"></polygon>
                        <path d="M8.94192552,7.91022059 L69.05205,7.91022059" id="Path-22" stroke="#C5C9CB" stroke-width="1.00338341"></path>
                        <path d="M8.94192552,13.0909725 L30.754733,13.0909725" id="Path-22" stroke="#C5C9CB" stroke-width="1.00338341"></path>
                        <path d="M8.94192552,17.5809574 L39.6907737,17.5809574" id="Path-22" stroke="#C5C9CB" stroke-width="1.00338341"></path>
                    </g>
                    <path d="M1.78616607,54.0850557 L85.8711431,54.0850557" id="Path-23" stroke="#EAEBEC" stroke-width="3.01015024"></path>
                    <path d="M1.78616607,13.9383759 L55.3801776,13.9383759" id="Path-23" stroke="#EAEBEC" stroke-width="3.01015024"></path>
                </g>
            </g>
        </g>
        <g id="document-small" transform="translate(79.016695, 50.491272)">
            <polygon id="Rectangle-7" fill="#BBC1C4" points="0.221183917 0.238010451 69.6327262 0.238010451 69.6327262 4.68664883 0.221183917 4.68664883"></polygon>
            <g id="Rectangle-7">
                <use fill="black" fill-opacity="1" filter="url(#filter-7)" xlink:href="#path-6"></use>
                <use fill="#FFFFFF" fill-rule="evenodd" xlink:href="#path-6"></use>
            </g>
            <path d="M17.2102368,4.5006046 L17.2102368,40.588316 L1.3917979,40.588316 C0.745285649,40.588316 0.221183917,40.0642143 0.221183917,39.417702 L0.221183917,3.32999062 L0.221183917,1.40862443 C0.221183917,0.762112183 0.745285649,0.238010451 1.3917979,0.238010451 L69.6327262,0.238010451 L69.6327262,4.5006046 L17.2102368,4.5006046 Z" id="Combined-Shape" fill="#0F1E24"></path>
            <g id="Group-35" transform="translate(3.462910, 9.609794)" stroke-linecap="round" stroke-width="1.58032888">
                <path d="M0.293991965,1.15483476 L7.04385225,1.15483476" id="Path-18" stroke="#FA3945"></path>
                <path d="M0.293991965,5.4352132 L9.35757033,5.4352132" id="Path-18" stroke="#00C7B7"></path>
                <path d="M0.293991965,9.71559164 L7.04385225,9.71559164" id="Path-18" stroke="#FA3945"></path>
                <path d="M0.293991965,13.9959701 L5.3085637,13.9959701" id="Path-18" stroke="#FAD96F"></path>
                <path d="M0.293991965,18.2763485 L9.93599985,18.2763485" id="Path-18" stroke="#00C7B7"></path>
                <path d="M0.293991965,22.556727 L7.04385225,22.556727" id="Path-18" stroke="#FAD96F"></path>
            </g>
            <g id="Group-68" transform="translate(21.214429, 9.223665)">
                <rect id="Rectangle-8" fill="#E4E5E5" x="0.246531804" y="0.416827158" width="15.4247872" height="2.57079786"></rect>
                <g id="Group-16" transform="translate(0.000000, 9.980840)">
                    <polygon id="Rectangle-4" fill="#C6CACB" opacity="0.373716518" points="0.246531804 0.567881537 43.307396 0.567881537 43.307396 11.4937725 0.246531804 11.4937725"></polygon>
                    <path d="M4.15984801,4.16513872 L32.1235099,4.16513872" id="Path-22" stroke="#C5C9CB" stroke-width="0.585306992"></path>
                    <path d="M4.15984801,6.57526171 L14.3073228,6.57526171" id="Path-22" stroke="#C5C9CB" stroke-width="0.585306992"></path>
                    <path d="M4.15984801,8.66403497 L18.4644331,8.66403497" id="Path-22" stroke="#C5C9CB" stroke-width="0.585306992"></path>
                </g>
                <path d="M0.830937291,25.1607566 L39.9478729,25.1607566" id="Path-23" stroke="#EAEBEC" stroke-width="1.75592097"></path>
                <path d="M0.830937291,6.48423261 L25.7632566,6.48423261" id="Path-23" stroke="#EAEBEC" stroke-width="1.75592097"></path>
            </g>
        </g>
        <g id="document-small" transform="translate(120.492806, 88.840057)">
            <polygon id="Rectangle-7" fill="#BBC1C4" points="0.221183917 0.238010451 69.6327262 0.238010451 69.6327262 4.68664883 0.221183917 4.68664883"></polygon>
            <g id="Rectangle-7">
                <use fill="black" fill-opacity="1" filter="url(#filter-9)" xlink:href="#path-8"></use>
                <use fill="#FFFFFF" fill-rule="evenodd" xlink:href="#path-8"></use>
            </g>
            <path d="M17.2102368,4.5006046 L17.2102368,40.588316 L1.3917979,40.588316 C0.745285649,40.588316 0.221183917,40.0642143 0.221183917,39.417702 L0.221183917,3.32999062 L0.221183917,1.40862443 C0.221183917,0.762112183 0.745285649,0.238010451 1.3917979,0.238010451 L69.6327262,0.238010451 L69.6327262,4.5006046 L17.2102368,4.5006046 Z" id="Combined-Shape" fill="#0F1E24"></path>
            <g id="Group-35" transform="translate(3.462910, 9.609794)" stroke-linecap="round" stroke-width="1.58032888">
                <path d="M0.293991965,1.15483476 L7.04385225,1.15483476" id="Path-18" stroke="#FA3945"></path>
                <path d="M0.293991965,5.4352132 L9.35757033,5.4352132" id="Path-18" stroke="#00C7B7"></path>
                <path d="M0.293991965,9.71559164 L7.04385225,9.71559164" id="Path-18" stroke="#FA3945"></path>
                <path d="M0.293991965,13.9959701 L5.3085637,13.9959701" id="Path-18" stroke="#FAD96F"></path>
                <path d="M0.293991965,18.2763485 L9.93599985,18.2763485" id="Path-18" stroke="#00C7B7"></path>
                <path d="M0.293991965,22.556727 L7.04385225,22.556727" id="Path-18" stroke="#FAD96F"></path>
            </g>
            <g id="Group-68" transform="translate(21.214429, 9.223665)">
                <polygon id="Rectangle-8" fill="#E4E5E5" points="0.246531804 0.416827158 15.671319 0.416827158 15.671319 2.98762502 0.246531804 2.98762502"></polygon>
                <g id="Group-16" transform="translate(0.000000, 9.980840)">
                    <rect id="Rectangle-4" fill="#C6CACB" opacity="0.373716518" x="0.246531804" y="0.567881537" width="43.0608642" height="10.9258909"></rect>
                    <path d="M4.15984801,4.16513872 L32.1235099,4.16513872" id="Path-22" stroke="#C5C9CB" stroke-width="0.585306992"></path>
                    <path d="M4.15984801,6.57526171 L14.3073228,6.57526171" id="Path-22" stroke="#C5C9CB" stroke-width="0.585306992"></path>
                    <path d="M4.15984801,8.66403497 L18.4644331,8.66403497" id="Path-22" stroke="#C5C9CB" stroke-width="0.585306992"></path>
                </g>
                <path d="M0.830937291,25.1607566 L39.9478729,25.1607566" id="Path-23" stroke="#EAEBEC" stroke-width="1.75592097"></path>
                <path d="M0.830937291,6.48423261 L25.7632566,6.48423261" id="Path-23" stroke="#EAEBEC" stroke-width="1.75592097"></path>
            </g>
        </g>
        <g id="document-small" transform="translate(161.968917, 127.188842)">
            <polygon id="Rectangle-7" fill="#BBC1C4" points="0.221183917 0.238010451 69.6327262 0.238010451 69.6327262 4.68664883 0.221183917 4.68664883"></polygon>
            <g id="Rectangle-7">
                <use fill="black" fill-opacity="1" filter="url(#filter-11)" xlink:href="#path-10"></use>
                <use fill="#FFFFFF" fill-rule="evenodd" xlink:href="#path-10"></use>
            </g>
            <path d="M17.2102368,4.5006046 L17.2102368,40.588316 L1.3917979,40.588316 C0.745285649,40.588316 0.221183917,40.0642143 0.221183917,39.417702 L0.221183917,3.32999062 L0.221183917,1.40862443 C0.221183917,0.762112183 0.745285649,0.238010451 1.3917979,0.238010451 L69.6327262,0.238010451 L69.6327262,4.5006046 L17.2102368,4.5006046 Z" id="Combined-Shape" fill="#0F1E24"></path>
            <g id="Group-35" transform="translate(3.462910, 9.609794)" stroke-linecap="round" stroke-width="1.58032888">
                <path d="M0.293991965,1.15483476 L7.04385225,1.15483476" id="Path-18" stroke="#FA3945"></path>
                <path d="M0.293991965,5.4352132 L9.35757033,5.4352132" id="Path-18" stroke="#00C7B7"></path>
                <path d="M0.293991965,9.71559164 L7.04385225,9.71559164" id="Path-18" stroke="#FA3945"></path>
                <path d="M0.293991965,13.9959701 L5.3085637,13.9959701" id="Path-18" stroke="#FAD96F"></path>
                <path d="M0.293991965,18.2763485 L9.93599985,18.2763485" id="Path-18" stroke="#00C7B7"></path>
                <path d="M0.293991965,22.556727 L7.04385225,22.556727" id="Path-18" stroke="#FAD96F"></path>
            </g>
            <g id="Group-68" transform="translate(21.214429, 9.223665)">
                <polygon id="Rectangle-8" fill="#E4E5E5" points="0.246531804 0.416827158 15.671319 0.416827158 15.671319 2.98762502 0.246531804 2.98762502"></polygon>
                <g id="Group-16" transform="translate(0.000000, 9.980840)">
                    <polygon id="Rectangle-4" fill="#C6CACB" opacity="0.373716518" points="0.246531804 0.567881537 43.307396 0.567881537 43.307396 11.4937725 0.246531804 11.4937725"></polygon>
                    <path d="M4.15984801,4.16513872 L32.1235099,4.16513872" id="Path-22" stroke="#C5C9CB" stroke-width="0.585306992"></path>
                    <path d="M4.15984801,6.57526171 L14.3073228,6.57526171" id="Path-22" stroke="#C5C9CB" stroke-width="0.585306992"></path>
                    <path d="M4.15984801,8.66403497 L18.4644331,8.66403497" id="Path-22" stroke="#C5C9CB" stroke-width="0.585306992"></path>
                </g>
                <path d="M0.830937291,25.1607566 L39.9478729,25.1607566" id="Path-23" stroke="#EAEBEC" stroke-width="1.75592097"></path>
                <path d="M0.830937291,6.48423261 L25.7632566,6.48423261" id="Path-23" stroke="#EAEBEC" stroke-width="1.75592097"></path>
            </g>
        </g>
        <path d="M158.450362,64.7242694 L157.790362,69.0242694 L157.920362,69.1042694 C158.267031,69.0109356 158.563694,68.8692704 158.810362,68.6792694 C159.05703,68.4892685 159.260362,68.2692707 159.420362,68.0192694 C159.580363,67.7692682 159.697029,67.4976042 159.770362,67.2042694 C159.843696,66.9109346 159.880362,66.6142709 159.880362,66.3142694 C159.880362,66.0876016 159.852029,65.8642705 159.795362,65.6442694 C159.738695,65.4242683 159.660363,65.2176037 159.560362,65.0242694 L160.700362,64.6242694 C160.853696,64.8309371 160.967029,65.0776013 161.040362,65.3642694 C161.113696,65.6509375 161.150362,65.9642677 161.150362,66.3042694 C161.150362,66.8176053 161.055363,67.2992672 160.865362,67.7492694 C160.675361,68.1992717 160.422031,68.5909344 160.105362,68.9242694 C159.788694,69.2576044 159.423698,69.5192685 159.010362,69.7092694 C158.597027,69.8992704 158.170365,69.9942694 157.730362,69.9942694 C157.35036,69.9942694 157.068697,69.8976037 156.885362,69.7042694 C156.702028,69.5109351 156.610362,69.2476044 156.610362,68.9142694 C156.610362,68.7342685 156.630362,68.517604 156.670362,68.2642694 L157.060362,65.7242694 L156.110362,65.7242694 L156.280362,64.7242694 L158.450362,64.7242694 Z M166.730362,69.8842694 L161.830362,69.8842694 L162.030362,68.6742694 L164.600362,66.7342694 C164.840364,66.5542685 165.042028,66.3909368 165.205362,66.2442694 C165.368696,66.097602 165.503695,65.9592701 165.610362,65.8292694 C165.71703,65.6992688 165.798695,65.5692701 165.855362,65.4392694 C165.912029,65.3092688 165.953696,65.1676035 165.980362,65.0142694 C166.000362,64.9076022 166.010362,64.8076032 166.010362,64.7142694 C166.010362,64.4742682 165.92703,64.2776035 165.760362,64.1242694 C165.593695,63.9709353 165.357031,63.8942694 165.050362,63.8942694 C164.870361,63.8942694 164.708696,63.9226025 164.565362,63.9792694 C164.422028,64.0359364 164.295363,64.1126023 164.185362,64.2092694 C164.075362,64.3059366 163.978696,64.4176021 163.895362,64.5442694 C163.812029,64.6709367 163.740363,64.8042687 163.680362,64.9442694 L162.570362,64.5142694 C162.683696,64.2742682 162.820362,64.0476038 162.980362,63.8342694 C163.140363,63.620935 163.327028,63.4376035 163.540362,63.2842694 C163.753697,63.1309353 163.995361,63.0092699 164.265362,62.9192694 C164.535364,62.829269 164.837027,62.7842694 165.170362,62.7842694 C165.863699,62.7842694 166.403694,62.957601 166.790362,63.3042694 C167.177031,63.6509378 167.370362,64.1109332 167.370362,64.6842694 C167.370362,64.9776042 167.322029,65.2442682 167.225362,65.4842694 C167.128695,65.7242706 166.988697,65.9542683 166.805362,66.1742694 C166.622028,66.3942705 166.398697,66.6142683 166.135362,66.8342694 C165.872028,67.0542705 165.577031,67.2842682 165.250362,67.5242694 L163.520362,68.8042694 L166.910362,68.8042694 L166.730362,69.8842694 Z" id="v2" fill="#091E26" opacity="0.657589286"></path>
        <path d="M536.736614,108.737183 L537.596614,103.577183 L538.636614,103.577183 L538.486614,104.447183 L538.546614,104.447183 C538.666614,104.153848 538.816613,103.915517 538.996614,103.732183 C539.176615,103.548849 539.406612,103.457183 539.686614,103.457183 C539.959948,103.457183 540.166613,103.545516 540.306614,103.722183 C540.446614,103.898851 540.499947,104.147182 540.466614,104.467183 L540.516614,104.467183 C540.643281,104.167182 540.803279,103.923851 540.996614,103.737183 C541.189948,103.550516 541.443279,103.457183 541.756614,103.457183 C542.343283,103.457183 542.636614,103.780513 542.636614,104.427183 C542.636614,104.53385 542.629947,104.657182 542.616614,104.797183 C542.60328,104.937184 542.586614,105.067183 542.566614,105.187183 L541.976614,108.737183 L540.936614,108.737183 L541.506614,105.297183 C541.539947,105.130516 541.556614,104.977184 541.556614,104.837183 C541.556614,104.543848 541.446615,104.397183 541.226614,104.397183 C541.13328,104.397183 541.043281,104.422183 540.956614,104.472183 C540.869947,104.522183 540.783281,104.613849 540.696614,104.747183 C540.62328,104.867184 540.563281,104.990516 540.516614,105.117183 C540.469947,105.24385 540.436614,105.363849 540.416614,105.477183 L539.876614,108.737183 L538.836614,108.737183 L539.406614,105.297183 C539.439947,105.130516 539.456614,104.977184 539.456614,104.837183 C539.456614,104.543848 539.346615,104.397183 539.126614,104.397183 C539.03328,104.397183 538.943281,104.422183 538.856614,104.472183 C538.769947,104.522183 538.683281,104.613849 538.596614,104.747183 C538.52328,104.867184 538.463281,104.990516 538.416614,105.117183 C538.369947,105.24385 538.336614,105.363849 538.316614,105.477183 L537.776614,108.737183 L536.736614,108.737183 Z M546.356614,108.737183 L546.556614,107.517183 L546.516614,107.517183 C546.416613,107.717184 546.311614,107.898849 546.201614,108.062183 C546.091613,108.225517 545.966614,108.365516 545.826614,108.482183 C545.686613,108.59885 545.528281,108.690516 545.351614,108.757183 C545.174946,108.82385 544.976615,108.857183 544.756614,108.857183 C544.223278,108.857183 543.833282,108.678852 543.586614,108.322183 C543.339946,107.965515 543.216614,107.477186 543.216614,106.857183 C543.216614,106.397181 543.26828,105.960519 543.371614,105.547183 C543.474948,105.133848 543.628279,104.772185 543.831614,104.462183 C544.034948,104.152182 544.286612,103.907184 544.586614,103.727183 C544.886615,103.547182 545.229945,103.457183 545.616614,103.457183 C546.016616,103.457183 546.326613,103.548849 546.546614,103.732183 C546.766615,103.915517 546.919947,104.177181 547.006614,104.517183 L547.056614,104.517183 L547.216614,103.577183 L548.476614,103.577183 L547.616614,108.737183 L546.356614,108.737183 Z M545.296614,107.857183 C545.489948,107.857183 545.664946,107.81385 545.821614,107.727183 C545.978281,107.640516 546.126613,107.513851 546.266614,107.347183 C546.359947,107.233849 546.456613,107.088851 546.556614,106.912183 C546.656614,106.735516 546.726613,106.533851 546.766614,106.307183 L546.916614,105.367183 C546.969947,105.080515 546.918281,104.857184 546.761614,104.697183 C546.604946,104.537182 546.356615,104.457183 546.016614,104.457183 C545.609945,104.457183 545.296615,104.577182 545.076614,104.817183 C544.856613,105.057184 544.713281,105.380514 544.646614,105.787183 L544.536614,106.447183 C544.52328,106.507183 544.51328,106.575516 544.506614,106.652183 C544.499947,106.72885 544.496614,106.807183 544.496614,106.887183 C544.496614,107.173851 544.55828,107.407182 544.681614,107.587183 C544.804948,107.767184 545.009946,107.857183 545.296614,107.857183 Z M551.396614,108.857183 C550.883278,108.857183 550.439949,108.780517 550.066614,108.627183 C549.693278,108.473849 549.409948,108.257185 549.216614,107.977183 L549.966614,107.277183 C550.126614,107.490518 550.336612,107.653849 550.596614,107.767183 C550.856615,107.880517 551.153279,107.937183 551.486614,107.937183 C551.833282,107.937183 552.106613,107.877184 552.306614,107.757183 C552.506615,107.637183 552.606614,107.463851 552.606614,107.237183 C552.606614,107.063849 552.551614,106.94385 552.441614,106.877183 C552.331613,106.810516 552.189948,106.760517 552.016614,106.727183 L551.276614,106.577183 C551.083279,106.537183 550.899948,106.485517 550.726614,106.422183 C550.553279,106.35885 550.401614,106.275517 550.271614,106.172183 C550.141613,106.068849 550.038281,105.937184 549.961614,105.777183 C549.884947,105.617182 549.846614,105.420518 549.846614,105.187183 C549.846614,104.900515 549.904946,104.650518 550.021614,104.437183 C550.138281,104.223849 550.299946,104.043851 550.506614,103.897183 C550.713281,103.750516 550.956612,103.640517 551.236614,103.567183 C551.516615,103.493849 551.819945,103.457183 552.146614,103.457183 C552.606616,103.457183 553.011612,103.523849 553.361614,103.657183 C553.711615,103.790517 553.976613,103.973849 554.156614,104.207183 L553.436614,104.927183 C553.32328,104.780516 553.154948,104.652184 552.931614,104.542183 C552.708279,104.432183 552.429949,104.377183 552.096614,104.377183 C551.776612,104.377183 551.528281,104.433849 551.351614,104.547183 C551.174946,104.660517 551.086614,104.823849 551.086614,105.037183 C551.086614,105.210517 551.141613,105.330516 551.251614,105.397183 C551.361614,105.46385 551.503279,105.51385 551.676614,105.547183 L552.436614,105.707183 C552.636615,105.747183 552.823279,105.79885 552.996614,105.862183 C553.169948,105.925517 553.319946,106.008849 553.446614,106.112183 C553.573281,106.215517 553.67328,106.343849 553.746614,106.497183 C553.819947,106.650517 553.856614,106.840515 553.856614,107.067183 C553.856614,107.347185 553.798281,107.597182 553.681614,107.817183 C553.564946,108.037184 553.399948,108.225516 553.186614,108.382183 C552.973279,108.538851 552.714949,108.657183 552.411614,108.737183 C552.108279,108.817184 551.769949,108.857183 551.396614,108.857183 Z M557.446614,108.857183 C557.066612,108.857183 556.786615,108.755518 556.606614,108.552183 C556.426613,108.348849 556.336614,108.077185 556.336614,107.737183 C556.336614,107.663849 556.34328,107.580517 556.356614,107.487183 C556.369947,107.393849 556.386614,107.287184 556.406614,107.167183 L556.836614,104.577183 L555.466614,104.577183 L555.636614,103.577183 L556.526614,103.577183 C556.726615,103.577183 556.87828,103.537184 556.981614,103.457183 C557.084948,103.377183 557.15328,103.230518 557.186614,103.017183 L557.396614,101.757183 L558.566614,101.757183 L558.266614,103.577183 L560.316614,103.577183 L560.146614,104.577183 L558.096614,104.577183 L557.576614,107.737183 L557.776614,107.817183 L559.536614,106.507183 L560.156614,107.237183 L559.396614,107.837183 C559.176613,108.010517 558.979948,108.162183 558.806614,108.292183 C558.633279,108.422184 558.471614,108.528849 558.321614,108.612183 C558.171613,108.695517 558.026614,108.757183 557.886614,108.797183 C557.746613,108.837183 557.599948,108.857183 557.446614,108.857183 Z M563.586614,108.857183 C562.853277,108.857183 562.304949,108.665518 561.941614,108.282183 C561.578279,107.898848 561.396614,107.353853 561.396614,106.647183 C561.396614,106.173847 561.46828,105.740518 561.611614,105.347183 C561.754948,104.953848 561.956612,104.617185 562.216614,104.337183 C562.476615,104.057182 562.789945,103.840517 563.156614,103.687183 C563.523282,103.533849 563.929945,103.457183 564.376614,103.457183 C564.636615,103.457183 564.878279,103.487183 565.101614,103.547183 C565.324948,103.607183 565.521613,103.695516 565.691614,103.812183 C565.861615,103.92885 565.994947,104.075516 566.091614,104.252183 C566.188281,104.428851 566.236614,104.633849 566.236614,104.867183 C566.236614,105.067184 566.193281,105.268849 566.106614,105.472183 C566.019947,105.675518 565.849948,105.860516 565.596614,106.027183 C565.343279,106.193851 564.981616,106.335516 564.511614,106.452183 C564.041611,106.56885 563.426617,106.640516 562.666614,106.667183 C562.659947,106.707183 562.656614,106.742183 562.656614,106.772183 L562.656614,106.847183 C562.656614,107.153851 562.734946,107.400516 562.891614,107.587183 C563.048281,107.773851 563.329945,107.867183 563.736614,107.867183 C563.896614,107.867183 564.039946,107.852183 564.166614,107.822183 C564.293281,107.792183 564.414946,107.73885 564.531614,107.662183 C564.648281,107.585516 564.764946,107.487184 564.881614,107.367183 C564.998281,107.247183 565.12328,107.097184 565.256614,106.917183 L566.056614,107.427183 C565.916613,107.633851 565.768281,107.825516 565.611614,108.002183 C565.454946,108.178851 565.278281,108.330516 565.081614,108.457183 C564.884946,108.58385 564.664948,108.682183 564.421614,108.752183 C564.178279,108.822184 563.899949,108.857183 563.586614,108.857183 Z M564.256614,104.377183 C563.876612,104.377183 563.561615,104.485515 563.311614,104.702183 C563.061612,104.918851 562.886614,105.273847 562.786614,105.767183 L562.756614,105.917183 C563.26995,105.890516 563.674946,105.84385 563.971614,105.777183 C564.268282,105.710516 564.49328,105.63385 564.646614,105.547183 C564.799948,105.460516 564.89828,105.365517 564.941614,105.262183 C564.984947,105.158849 565.006614,105.060517 565.006614,104.967183 C565.006614,104.787182 564.948281,104.64385 564.831614,104.537183 C564.714946,104.430516 564.523282,104.377183 564.256614,104.377183 Z M568.346614,108.737183 L569.036614,104.577183 L567.776614,104.577183 L567.946614,103.577183 L570.466614,103.577183 L570.206614,105.087183 L570.266614,105.087183 C570.473281,104.613847 570.731612,104.243851 571.041614,103.977183 C571.351615,103.710515 571.759944,103.577183 572.266614,103.577183 L572.736614,103.577183 L572.526614,104.837183 L571.616614,104.837183 C571.336612,104.837183 571.109948,104.875516 570.936614,104.952183 C570.763279,105.02885 570.609948,105.147182 570.476614,105.307183 C570.409947,105.387184 570.324948,105.513849 570.221614,105.687183 C570.11828,105.860517 570.049947,106.053849 570.016614,106.267183 L569.606614,108.737183 L568.346614,108.737183 Z" id="master" fill="#091E26" opacity="0.657589286"></path>
        <path d="M200.440571,108.031619 C199.927235,108.031619 199.483907,107.954954 199.110571,107.801619 C198.737236,107.648285 198.453906,107.431621 198.260571,107.151619 L199.010571,106.451619 C199.170572,106.664954 199.38057,106.828286 199.640571,106.941619 C199.900573,107.054953 200.197236,107.111619 200.530571,107.111619 C200.87724,107.111619 201.15057,107.05162 201.350571,106.931619 C201.550572,106.811619 201.650571,106.638287 201.650571,106.411619 C201.650571,106.238285 201.595572,106.118286 201.485571,106.051619 C201.375571,105.984952 201.233906,105.934953 201.060571,105.901619 L200.320571,105.751619 C200.127237,105.711619 199.943906,105.659953 199.770571,105.596619 C199.597237,105.533286 199.445572,105.449953 199.315571,105.346619 C199.185571,105.243286 199.082238,105.11162 199.005571,104.951619 C198.928904,104.791619 198.890571,104.594954 198.890571,104.361619 C198.890571,104.074951 198.948904,103.824954 199.065571,103.611619 C199.182239,103.398285 199.343904,103.218287 199.550571,103.071619 C199.757239,102.924952 200.00057,102.814953 200.280571,102.741619 C200.560573,102.668286 200.863903,102.631619 201.190571,102.631619 C201.650574,102.631619 202.05557,102.698285 202.405571,102.831619 C202.755573,102.964953 203.02057,103.148285 203.200571,103.381619 L202.480571,104.101619 C202.367237,103.954952 202.198906,103.82662 201.975571,103.716619 C201.752237,103.606619 201.473906,103.551619 201.140571,103.551619 C200.82057,103.551619 200.572239,103.608286 200.395571,103.721619 C200.218904,103.834953 200.130571,103.998285 200.130571,104.211619 C200.130571,104.384954 200.185571,104.504952 200.295571,104.571619 C200.405572,104.638286 200.547237,104.688286 200.720571,104.721619 L201.480571,104.881619 C201.680572,104.92162 201.867237,104.973286 202.040571,105.036619 C202.213906,105.099953 202.363904,105.183286 202.490571,105.286619 C202.617239,105.389953 202.717238,105.518285 202.790571,105.671619 C202.863905,105.824954 202.900571,106.014952 202.900571,106.241619 C202.900571,106.521621 202.842239,106.771618 202.725571,106.991619 C202.608904,107.211621 202.443906,107.399952 202.230571,107.556619 C202.017237,107.713287 201.758906,107.831619 201.455571,107.911619 C201.152237,107.99162 200.813907,108.031619 200.440571,108.031619 Z M206.490571,108.031619 C206.110569,108.031619 205.830572,107.929954 205.650571,107.726619 C205.47057,107.523285 205.380571,107.251621 205.380571,106.911619 C205.380571,106.838286 205.387238,106.754953 205.400571,106.661619 C205.413905,106.568286 205.430571,106.46162 205.450571,106.341619 L205.880571,103.751619 L204.510571,103.751619 L204.680571,102.751619 L205.570571,102.751619 C205.770572,102.751619 205.922238,102.71162 206.025571,102.631619 C206.128905,102.551619 206.197238,102.404954 206.230571,102.191619 L206.440571,100.931619 L207.610571,100.931619 L207.310571,102.751619 L209.360571,102.751619 L209.190571,103.751619 L207.140571,103.751619 L206.620571,106.911619 L206.820571,106.991619 L208.580571,105.681619 L209.200571,106.411619 L208.440571,107.011619 C208.22057,107.184954 208.023906,107.336619 207.850571,107.466619 C207.677237,107.59662 207.515572,107.703286 207.365571,107.786619 C207.215571,107.869953 207.070572,107.931619 206.930571,107.971619 C206.790571,108.01162 206.643905,108.031619 206.490571,108.031619 Z M213.400571,107.911619 L213.600571,106.691619 L213.560571,106.691619 C213.460571,106.89162 213.355572,107.073285 213.245571,107.236619 C213.135571,107.399954 213.010572,107.539952 212.870571,107.656619 C212.730571,107.773287 212.572239,107.864952 212.395571,107.931619 C212.218904,107.998286 212.020572,108.031619 211.800571,108.031619 C211.267235,108.031619 210.877239,107.853288 210.630571,107.496619 C210.383903,107.139951 210.260571,106.651623 210.260571,106.031619 C210.260571,105.571617 210.312238,105.134955 210.415571,104.721619 C210.518905,104.308284 210.672237,103.946621 210.875571,103.636619 C211.078906,103.326618 211.33057,103.08162 211.630571,102.901619 C211.930573,102.721619 212.273903,102.631619 212.660571,102.631619 C213.060573,102.631619 213.37057,102.723285 213.590571,102.906619 C213.810572,103.089954 213.963904,103.351618 214.050571,103.691619 L214.100571,103.691619 L214.260571,102.751619 L215.520571,102.751619 L214.660571,107.911619 L213.400571,107.911619 Z M212.340571,107.031619 C212.533906,107.031619 212.708904,106.988287 212.865571,106.901619 C213.022239,106.814952 213.170571,106.688287 213.310571,106.521619 C213.403905,106.408286 213.500571,106.263287 213.600571,106.086619 C213.700572,105.909952 213.770571,105.708287 213.810571,105.481619 L213.960571,104.541619 C214.013905,104.254951 213.962239,104.03162 213.805571,103.871619 C213.648904,103.711619 213.400573,103.631619 213.060571,103.631619 C212.653903,103.631619 212.340572,103.751618 212.120571,103.991619 C211.90057,104.231621 211.757238,104.554951 211.690571,104.961619 L211.580571,105.621619 C211.567238,105.68162 211.557238,105.749952 211.550571,105.826619 C211.543905,105.903287 211.540571,105.981619 211.540571,106.061619 C211.540571,106.348288 211.602237,106.581619 211.725571,106.761619 C211.848905,106.94162 212.053903,107.031619 212.340571,107.031619 Z M218.030571,110.031619 C217.570569,110.031619 217.178906,109.978287 216.855571,109.871619 C216.532236,109.764952 216.250573,109.571621 216.010571,109.291619 L216.780571,108.501619 C216.933905,108.688287 217.113904,108.823286 217.320571,108.906619 C217.527239,108.989953 217.757237,109.031619 218.010571,109.031619 C218.210572,109.031619 218.388904,109.009953 218.545571,108.966619 C218.702239,108.923286 218.840571,108.843287 218.960571,108.726619 C219.080572,108.609952 219.183904,108.453287 219.270571,108.256619 C219.357238,108.059952 219.427238,107.808288 219.480571,107.501619 L219.650571,106.491619 L219.600571,106.491619 C219.507238,106.69162 219.405572,106.874952 219.295571,107.041619 C219.185571,107.208287 219.060572,107.351619 218.920571,107.471619 C218.780571,107.59162 218.623906,107.683286 218.450571,107.746619 C218.277237,107.809953 218.077239,107.841619 217.850571,107.841619 C217.577237,107.841619 217.342239,107.793287 217.145571,107.696619 C216.948904,107.599952 216.787239,107.464954 216.660571,107.291619 C216.533904,107.118285 216.440572,106.908287 216.380571,106.661619 C216.320571,106.414952 216.290571,106.144954 216.290571,105.851619 C216.290571,105.424951 216.340571,105.016621 216.440571,104.626619 C216.540572,104.236618 216.69057,103.893288 216.890571,103.596619 C217.090572,103.299951 217.337237,103.064954 217.630571,102.891619 C217.923906,102.718285 218.263903,102.631619 218.650571,102.631619 C219.05724,102.631619 219.373904,102.723285 219.600571,102.906619 C219.827239,103.089954 219.980571,103.351618 220.060571,103.691619 L220.110571,103.691619 L220.270571,102.751619 L221.530571,102.751619 L220.720571,107.641619 C220.580571,108.46829 220.278907,109.073284 219.815571,109.456619 C219.352236,109.839955 218.757242,110.031619 218.030571,110.031619 Z M218.380571,106.831619 C218.573906,106.831619 218.747237,106.789953 218.900571,106.706619 C219.053905,106.623286 219.200571,106.50162 219.340571,106.341619 C219.427238,106.241619 219.523904,106.10662 219.630571,105.936619 C219.737239,105.766619 219.810571,105.554954 219.850571,105.301619 L219.980571,104.541619 C220.027238,104.261618 219.973905,104.039954 219.820571,103.876619 C219.667237,103.713285 219.41724,103.631619 219.070571,103.631619 C218.663903,103.631619 218.352239,103.753285 218.135571,103.996619 C217.918904,104.239954 217.773905,104.561617 217.700571,104.961619 L217.620571,105.421619 C217.607238,105.488286 217.597238,105.561619 217.590571,105.641619 C217.583905,105.72162 217.580571,105.808286 217.580571,105.901619 C217.580571,106.181621 217.643904,106.406619 217.770571,106.576619 C217.897239,106.74662 218.10057,106.831619 218.380571,106.831619 Z M225.230571,101.931619 C224.95057,101.931619 224.755572,101.878287 224.645571,101.771619 C224.535571,101.664952 224.480571,101.534954 224.480571,101.381619 C224.480571,101.348286 224.483905,101.304953 224.490571,101.251619 C224.497238,101.198286 224.507238,101.124953 224.520571,101.031619 C224.553905,100.838285 224.635571,100.68662 224.765571,100.576619 C224.895572,100.466619 225.10057,100.411619 225.380571,100.411619 C225.660573,100.411619 225.855571,100.464952 225.965571,100.571619 C226.075572,100.678287 226.130571,100.808285 226.130571,100.961619 C226.130571,100.994953 226.127238,101.038286 226.120571,101.091619 C226.113905,101.144953 226.103905,101.218286 226.090571,101.311619 C226.057238,101.504954 225.975572,101.656619 225.845571,101.766619 C225.715571,101.87662 225.510573,101.931619 225.230571,101.931619 Z M224.730571,108.031619 C224.37057,108.031619 224.097239,107.93662 223.910571,107.746619 C223.723904,107.556619 223.630571,107.301621 223.630571,106.981619 C223.630571,106.888286 223.637238,106.79162 223.650571,106.691619 C223.663905,106.591619 223.687238,106.46162 223.720571,106.301619 L224.210571,103.751619 L222.550571,103.751619 L222.720571,102.751619 L225.650571,102.751619 L224.840571,106.971619 L225.030571,107.031619 L226.600571,105.521619 L227.300571,106.151619 L226.600571,106.891619 C226.227236,107.291621 225.898906,107.581619 225.615571,107.761619 C225.332237,107.94162 225.03724,108.031619 224.730571,108.031619 Z M228.180571,107.911619 L229.040571,102.751619 L230.300571,102.751619 L230.100571,103.971619 L230.150571,103.971619 C230.337239,103.564951 230.562237,103.239954 230.825571,102.996619 C231.088906,102.753285 231.427236,102.631619 231.840571,102.631619 C232.080573,102.631619 232.288904,102.669952 232.465571,102.746619 C232.642239,102.823287 232.787237,102.928285 232.900571,103.061619 C233.013905,103.194953 233.098904,103.353285 233.155571,103.536619 C233.212238,103.719954 233.240571,103.914952 233.240571,104.121619 C233.240571,104.368287 233.207238,104.688284 233.140571,105.081619 L232.670571,107.911619 L231.410571,107.911619 L231.900571,104.961619 C231.913905,104.868286 231.928905,104.768287 231.945571,104.661619 C231.962238,104.554952 231.970571,104.448287 231.970571,104.341619 C231.970571,104.154952 231.920572,103.988287 231.820571,103.841619 C231.720571,103.694952 231.547239,103.621619 231.300571,103.621619 C231.107237,103.621619 230.940572,103.666619 230.800571,103.756619 C230.660571,103.84662 230.527239,103.968285 230.400571,104.121619 C230.327238,104.214953 230.233905,104.356619 230.120571,104.546619 C230.007237,104.73662 229.930572,104.951618 229.890571,105.191619 L229.440571,107.911619 L228.180571,107.911619 Z M236.030571,110.031619 C235.570569,110.031619 235.178906,109.978287 234.855571,109.871619 C234.532236,109.764952 234.250573,109.571621 234.010571,109.291619 L234.780571,108.501619 C234.933905,108.688287 235.113904,108.823286 235.320571,108.906619 C235.527239,108.989953 235.757237,109.031619 236.010571,109.031619 C236.210572,109.031619 236.388904,109.009953 236.545571,108.966619 C236.702239,108.923286 236.840571,108.843287 236.960571,108.726619 C237.080572,108.609952 237.183904,108.453287 237.270571,108.256619 C237.357238,108.059952 237.427238,107.808288 237.480571,107.501619 L237.650571,106.491619 L237.600571,106.491619 C237.507238,106.69162 237.405572,106.874952 237.295571,107.041619 C237.185571,107.208287 237.060572,107.351619 236.920571,107.471619 C236.780571,107.59162 236.623906,107.683286 236.450571,107.746619 C236.277237,107.809953 236.077239,107.841619 235.850571,107.841619 C235.577237,107.841619 235.342239,107.793287 235.145571,107.696619 C234.948904,107.599952 234.787239,107.464954 234.660571,107.291619 C234.533904,107.118285 234.440572,106.908287 234.380571,106.661619 C234.320571,106.414952 234.290571,106.144954 234.290571,105.851619 C234.290571,105.424951 234.340571,105.016621 234.440571,104.626619 C234.540572,104.236618 234.69057,103.893288 234.890571,103.596619 C235.090572,103.299951 235.337237,103.064954 235.630571,102.891619 C235.923906,102.718285 236.263903,102.631619 236.650571,102.631619 C237.05724,102.631619 237.373904,102.723285 237.600571,102.906619 C237.827239,103.089954 237.980571,103.351618 238.060571,103.691619 L238.110571,103.691619 L238.270571,102.751619 L239.530571,102.751619 L238.720571,107.641619 C238.580571,108.46829 238.278907,109.073284 237.815571,109.456619 C237.352236,109.839955 236.757242,110.031619 236.030571,110.031619 Z M236.380571,106.831619 C236.573906,106.831619 236.747237,106.789953 236.900571,106.706619 C237.053905,106.623286 237.200571,106.50162 237.340571,106.341619 C237.427238,106.241619 237.523904,106.10662 237.630571,105.936619 C237.737239,105.766619 237.810571,105.554954 237.850571,105.301619 L237.980571,104.541619 C238.027238,104.261618 237.973905,104.039954 237.820571,103.876619 C237.667237,103.713285 237.41724,103.631619 237.070571,103.631619 C236.663903,103.631619 236.352239,103.753285 236.135571,103.996619 C235.918904,104.239954 235.773905,104.561617 235.700571,104.961619 L235.620571,105.421619 C235.607238,105.488286 235.597238,105.561619 235.590571,105.641619 C235.583905,105.72162 235.580571,105.808286 235.580571,105.901619 C235.580571,106.181621 235.643904,106.406619 235.770571,106.576619 C235.897239,106.74662 236.10057,106.831619 236.380571,106.831619 Z" id="staging" fill="#091E26" opacity="0.657589286"></path>
        <path d="M244.600571,144.421602 L244.560571,144.421602 C244.460571,144.621603 244.355572,144.803267 244.245571,144.966602 C244.135571,145.129936 244.010572,145.269934 243.870571,145.386602 C243.730571,145.503269 243.572239,145.594935 243.395571,145.661602 C243.218904,145.728269 243.020572,145.761602 242.800571,145.761602 C242.267235,145.761602 241.877239,145.58327 241.630571,145.226602 C241.383903,144.869933 241.260571,144.381605 241.260571,143.761602 C241.260571,143.301599 241.312238,142.864937 241.415571,142.451602 C241.518905,142.038266 241.672237,141.676603 241.875571,141.366602 C242.078906,141.0566 242.33057,140.811602 242.630571,140.631602 C242.930573,140.451601 243.273903,140.361602 243.660571,140.361602 C244.060573,140.361602 244.37057,140.453267 244.590571,140.636602 C244.810572,140.819936 244.963904,141.0816 245.050571,141.421602 L245.100571,141.421602 L245.260571,140.481602 L246.520571,140.481602 L245.330571,147.641602 L244.070571,147.641602 L244.600571,144.421602 Z M243.340571,144.761602 C243.533906,144.761602 243.708904,144.718269 243.865571,144.631602 C244.022239,144.544934 244.170571,144.418269 244.310571,144.251602 C244.403905,144.138268 244.500571,143.993269 244.600571,143.816602 C244.700572,143.639934 244.770571,143.438269 244.810571,143.211602 L244.960571,142.271602 C245.013905,141.984933 244.962239,141.761602 244.805571,141.601602 C244.648904,141.441601 244.400573,141.361602 244.060571,141.361602 C243.653903,141.361602 243.340572,141.4816 243.120571,141.721602 C242.90057,141.961603 242.757238,142.284933 242.690571,142.691602 L242.580571,143.351602 C242.567238,143.411602 242.557238,143.479935 242.550571,143.556602 C242.543905,143.633269 242.540571,143.711601 242.540571,143.791602 C242.540571,144.07827 242.602237,144.311601 242.725571,144.491602 C242.848905,144.671602 243.053903,144.761602 243.340571,144.761602 Z M250.400571,145.641602 L250.600571,144.421602 L250.560571,144.421602 C250.460571,144.621603 250.355572,144.803267 250.245571,144.966602 C250.135571,145.129936 250.010572,145.269934 249.870571,145.386602 C249.730571,145.503269 249.572239,145.594935 249.395571,145.661602 C249.218904,145.728269 249.020572,145.761602 248.800571,145.761602 C248.267235,145.761602 247.877239,145.58327 247.630571,145.226602 C247.383903,144.869933 247.260571,144.381605 247.260571,143.761602 C247.260571,143.301599 247.312238,142.864937 247.415571,142.451602 C247.518905,142.038266 247.672237,141.676603 247.875571,141.366602 C248.078906,141.0566 248.33057,140.811602 248.630571,140.631602 C248.930573,140.451601 249.273903,140.361602 249.660571,140.361602 C250.060573,140.361602 250.37057,140.453267 250.590571,140.636602 C250.810572,140.819936 250.963904,141.0816 251.050571,141.421602 L251.100571,141.421602 L251.260571,140.481602 L252.520571,140.481602 L251.660571,145.641602 L250.400571,145.641602 Z M249.340571,144.761602 C249.533906,144.761602 249.708904,144.718269 249.865571,144.631602 C250.022239,144.544934 250.170571,144.418269 250.310571,144.251602 C250.403905,144.138268 250.500571,143.993269 250.600571,143.816602 C250.700572,143.639934 250.770571,143.438269 250.810571,143.211602 L250.960571,142.271602 C251.013905,141.984933 250.962239,141.761602 250.805571,141.601602 C250.648904,141.441601 250.400573,141.361602 250.060571,141.361602 C249.653903,141.361602 249.340572,141.4816 249.120571,141.721602 C248.90057,141.961603 248.757238,142.284933 248.690571,142.691602 L248.580571,143.351602 C248.567238,143.411602 248.557238,143.479935 248.550571,143.556602 C248.543905,143.633269 248.540571,143.711601 248.540571,143.791602 C248.540571,144.07827 248.602237,144.311601 248.725571,144.491602 C248.848905,144.671602 249.053903,144.761602 249.340571,144.761602 Z" id="qa" fill="#091E26" opacity="0.657589286"></path>
    </g>
</svg>